<svg width="153" height="19" viewBox="0 0 153 19" fill="none" xmlns="http://www.w3.org/2000/svg">
<g clip-path="url(#clip0_2007_108)">
<path d="M97.5735 5.84599C94.2742 5.84599 93.8243 6.83378 93.8243 8.35347V14.8881H92.0996V7.97355C92.0996 6.14992 93.1494 4.47827 96.2987 4.47827H100.348C103.572 4.47827 104.547 6.07394 104.547 7.97355V14.8881H102.822V8.35347C102.822 6.83378 102.372 5.84599 99.0732 5.84599H97.5735Z" fill="#1E1E1E"/>
<path d="M119.843 0.29834H118.118V5.08535C117.294 4.62944 116.094 4.47747 114.444 4.47747H112.195C108.071 4.47747 106.796 5.61724 106.796 8.96054V10.7842C106.796 14.3554 108.97 15.1153 112.045 15.1153H114.444C117.519 15.1153 119.693 14.3554 119.693 10.7842V9.6444V0.29834H119.843ZM118.118 10.7082C118.118 12.6838 117.519 13.6716 114.744 13.6716H111.97C109.195 13.6716 108.595 12.7598 108.595 10.7082V8.6566C108.595 6.30109 109.795 5.84519 112.12 5.84519H114.594C116.919 5.84519 118.118 6.30109 118.118 8.6566V10.7082Z" fill="#1E1E1E"/>
<path d="M84.2268 4.39722H81.5273C78.453 4.39722 77.3282 5.15706 77.3282 7.05666V7.58855H79.0528V7.20863C79.0528 6.37281 79.5027 5.84092 81.6023 5.84092H84.0768C86.7013 5.84092 87.826 6.06887 87.826 7.96847V8.65233H81.4523C78.453 8.65233 76.8783 8.95627 76.8783 11.2358V11.9197C76.8783 13.8193 77.5532 15.035 80.1026 15.035H86.3263C88.8758 15.035 89.5507 13.8952 89.5507 11.9197V7.96847C89.5507 4.92911 87.4511 4.39722 84.2268 4.39722ZM87.901 11.6157V11.9197C87.901 13.0594 87.5261 13.5153 85.1266 13.5153H81.3024C78.9779 13.5153 78.528 13.0594 78.528 11.9197V11.6157C78.528 10.324 79.1278 10.02 81.3774 10.02H87.826L87.901 11.6157Z" fill="#1E1E1E"/>
<path d="M53.8581 5.84599C50.5588 5.84599 50.1089 6.83378 50.1089 8.35347V14.8881H48.3843V7.97355C48.3843 6.14992 49.4341 4.47827 52.5834 4.47827H56.6326C59.8569 4.47827 60.8317 6.07394 60.8317 7.97355V14.8881H59.107V8.35347C59.107 6.83378 58.6571 5.84599 55.3578 5.84599H53.8581Z" fill="#1E1E1E"/>
<path d="M24.2384 4.40149H21.9888C20.3392 4.40149 19.1394 4.62944 18.3146 5.00936V0.29834H16.59V9.56841V10.7082C16.59 14.2794 18.7645 15.0393 21.8389 15.0393H24.2384C27.3127 15.0393 29.4873 14.2794 29.4873 10.7082V8.88456C29.6373 5.61723 28.3625 4.40149 24.2384 4.40149ZM27.9126 10.7082C27.9126 12.6838 27.3127 13.6716 24.5383 13.6716H21.7639C18.9895 13.6716 18.3896 12.7597 18.3896 10.7082V8.6566C18.3896 6.30109 19.5893 5.84519 21.9139 5.84519H24.3883C26.7129 5.84519 27.9126 6.30109 27.9126 8.6566V10.7082Z" fill="#1E1E1E"/>
<path d="M73.8027 4.62964L69.3786 13.7477L64.5046 4.62964H62.5551L68.5538 15.4954C67.729 17.167 67.1291 17.319 64.6546 17.319V18.7627C68.1789 18.6867 68.8537 18.3068 69.9785 16.1792L75.6773 4.62964H73.8027Z" fill="#1E1E1E"/>
<path d="M0.993652 8.57635C0.993652 4.85312 3.54312 4.39722 5.94262 4.39722H8.71705C11.7914 4.39722 13.966 5.15706 13.966 8.88028V10.02H2.71829V10.6279C2.71829 12.9834 3.84306 13.5913 6.84244 13.5913H9.16695C11.3415 13.5913 12.1663 13.2874 12.3163 11.7677H14.0409V11.9956C14.0409 14.3511 12.0913 15.035 8.942 15.035H5.79266C3.54312 15.035 0.993652 14.5791 0.993652 10.8559V8.57635ZM12.2413 7.96847C12.2413 6.9047 11.4915 5.84092 8.71705 5.84092H6.24256C3.54312 5.84092 2.86826 6.29682 2.71829 8.65233H12.2413V7.96847Z" fill="#1E1E1E"/>
<path d="M32.1863 8.57635C32.1863 5.15706 34.5858 4.39722 37.8101 4.39722H40.2846C43.5089 4.39722 45.9084 5.15706 45.9084 8.57635V10.8559C45.9084 14.2752 43.5089 15.035 40.2846 15.035H37.8101C34.5858 15.035 32.1863 14.2752 32.1863 10.8559V8.57635ZM44.1088 8.72832C44.1088 6.29682 42.6841 5.84092 40.7345 5.84092H37.2852C35.3356 5.84092 33.9109 6.29682 33.9109 8.72832V10.7799C33.9109 13.2114 35.3356 13.6673 37.2852 13.6673H40.7345C42.7591 13.6673 44.1088 13.2114 44.1088 10.7799V8.72832Z" fill="#1E1E1E"/>
<path d="M122.243 8.57635C122.243 4.85312 124.867 4.39722 127.342 4.39722H130.191C133.34 4.39722 134.615 5.68895 134.615 7.89249V8.19643H133.04V7.96847C133.04 6.22084 131.916 5.84092 130.191 5.84092H127.042C125.467 5.84092 123.892 6.06887 123.892 8.65233V10.7799C123.892 13.0594 125.317 13.5913 127.342 13.5913H130.191C131.766 13.5913 133.115 13.1354 133.115 11.4637V11.1598H134.69V11.3878C134.69 13.9712 133.415 14.959 130.266 14.959H126.442C124.942 14.959 122.168 14.5031 122.168 10.7799L122.243 8.57635Z" fill="#1E1E1E"/>
<path d="M137.014 8.57635C137.014 5.15706 139.414 4.39722 142.638 4.39722H145.112C148.337 4.39722 150.736 5.15706 150.736 8.57635V10.8559C150.736 14.2752 148.337 15.035 145.112 15.035H142.638C139.414 15.035 137.014 14.2752 137.014 10.8559V8.57635ZM148.937 8.72832C148.937 6.29682 147.512 5.84092 145.562 5.84092H142.113C140.089 5.84092 138.739 6.29682 138.739 8.72832V10.7799C138.739 13.2114 140.163 13.6673 142.113 13.6673H145.562C147.587 13.6673 148.937 13.2114 148.937 10.7799V8.72832Z" fill="#1E1E1E"/>
</g>
<defs>
<clipPath id="clip0_2007_108">
<rect width="151.171" height="18.8462" fill="white" transform="translate(0.843262 -0.00415039)"/>
</clipPath>
</defs>
</svg>
