<svg width="164" height="34" viewBox="0 0 164 34" fill="none" xmlns="http://www.w3.org/2000/svg">
<g clip-path="url(#clip0_2007_119)">
<mask id="mask0_2007_119" style="mask-type:luminance" maskUnits="userSpaceOnUse" x="54" y="0" width="111" height="33">
<path d="M54.5308 32.3892H164.582V0.606456H54.5308V32.3892Z" fill="white"/>
</mask>
<g mask="url(#mask0_2007_119)">
<path d="M164.583 13.5941C164.613 9.29179 162.126 5.6675 157.938 5.6675C153.897 5.6675 151.23 9.2533 151.23 13.4363C151.23 17.6792 153.835 21.2732 157.938 21.2732C158.772 21.2732 159.565 21.1281 160.295 20.8636V19.3904C159.632 19.7231 158.903 19.9068 158.116 19.9068C154.911 19.9068 152.486 17.3828 152.58 13.5941H164.583ZM163.24 12.237H152.58C152.819 9.41662 155.152 7.02242 157.967 7.02242C160.81 7.02242 162.904 9.4837 163.24 12.237ZM150.4 7.02242C150.654 7.02242 150.859 7.07521 151.075 7.17089V5.7005C150.927 5.6752 150.769 5.66365 150.605 5.66365C149.145 5.66365 148.154 6.56931 147.616 7.93193H147.553V5.98754H146.206V20.9455H147.553V13.3049C147.553 11.1031 147.376 7.02242 150.4 7.02242ZM146.234 28.5548C146.001 28.4047 145.699 28.3492 145.252 28.3492H143.729V28.5191C144.207 28.5609 144.257 28.5796 144.257 29.0959V31.539C144.257 32.0554 144.201 32.0922 143.698 32.128V32.2979H145.312V32.128C144.82 32.0922 144.765 32.0554 144.765 31.539V30.5718H144.962C145.282 30.5718 145.386 30.6455 145.491 30.8148C145.675 31.1129 145.896 31.4901 146.111 31.7881C146.387 32.1835 146.645 32.316 147.105 32.3408C147.179 32.3468 147.247 32.3468 147.321 32.3468L147.345 32.189C147.209 32.1533 147.068 32.0862 146.902 31.9036C146.755 31.7452 146.626 31.5874 146.405 31.2712C146.222 30.998 145.964 30.5905 145.859 30.3914C146.313 30.1962 146.638 29.874 146.638 29.351C146.638 28.987 146.479 28.7132 146.234 28.5548ZM146.068 29.4489C146.068 29.7772 145.97 30.0203 145.73 30.2023C145.576 30.3243 145.374 30.3727 145.06 30.3727H144.765V28.877C144.765 28.7132 144.79 28.64 144.833 28.6104C144.882 28.5735 144.987 28.5493 145.165 28.5493C145.631 28.5493 146.068 28.7924 146.068 29.4489ZM132.135 13.5941H144.139C144.17 9.29179 141.682 5.6675 137.494 5.6675C133.453 5.6675 130.787 9.2533 130.787 13.4363C130.787 17.6792 133.392 21.2732 137.494 21.2732C138.329 21.2732 139.122 21.1281 139.851 20.8636V19.3904C139.189 19.7231 138.461 19.9068 137.673 19.9068C134.468 19.9068 132.042 17.3828 132.135 13.5941ZM132.135 12.237C132.37 9.41662 134.71 7.02242 137.526 7.02242C140.363 7.02242 142.462 9.4837 142.79 12.237H132.135ZM130.758 29.0959V31.539C130.758 32.0554 130.703 32.0922 130.2 32.128V32.2979H131.814V32.128C131.324 32.0922 131.267 32.0554 131.267 31.539V30.5718H131.464C131.784 30.5718 131.888 30.6455 131.993 30.8148C132.177 31.1129 132.398 31.4901 132.614 31.7881C132.889 32.1835 133.146 32.316 133.608 32.3408C133.681 32.3468 133.749 32.3468 133.822 32.3468L133.847 32.189C133.711 32.1533 133.57 32.0862 133.403 31.9036C133.258 31.7452 133.128 31.5874 132.907 31.2712C132.723 30.998 132.465 30.5905 132.361 30.3914C132.815 30.1962 133.141 29.874 133.141 29.351C133.141 28.987 132.982 28.7132 132.735 28.5548C132.502 28.4047 132.202 28.3492 131.753 28.3492H130.23V28.5191C130.709 28.5609 130.758 28.5796 130.758 29.0959ZM131.267 28.877C131.267 28.7132 131.293 28.64 131.335 28.6104C131.385 28.5735 131.489 28.5493 131.667 28.5493C132.133 28.5493 132.57 28.7924 132.57 29.4489C132.57 29.7772 132.472 30.0203 132.232 30.2023C132.08 30.3243 131.876 30.3727 131.563 30.3727H131.267V28.877ZM127.589 18.3715C127.589 18.3715 128.88 16.3732 128.88 13.3994V0.607461H127.525V8.57804H127.468C126.301 6.70129 124.266 5.66365 122.144 5.66365C118.009 5.66365 115.373 8.99871 115.373 13.3681C115.373 17.7424 118.009 21.2721 122.204 21.2721C124.241 21.2721 126.567 20.2823 127.589 18.3715ZM127.619 13.3994C127.619 16.9006 125.583 19.9068 122.173 19.9068C118.789 19.9068 116.723 16.8016 116.723 13.3681C116.723 10.099 118.908 7.02242 122.113 7.02242C125.615 7.02242 127.619 9.83948 127.619 13.3994ZM116.032 28.3492H115.123V28.5191C115.412 28.5433 115.547 28.5917 115.67 28.7434C115.781 28.8891 115.793 28.9139 115.793 29.3571V30.6944C115.793 31.2536 115.775 31.5451 115.756 31.7337C115.725 32.0312 115.571 32.1104 115.215 32.128V32.2979H116.67V32.128C116.253 32.1038 116.111 32.0312 116.08 31.721C116.062 31.5451 116.044 31.2536 116.044 30.6944V29.169H116.056L118.673 32.3523H118.863V29.9037C118.863 29.3395 118.875 29.0657 118.899 28.8836C118.924 28.6158 119.072 28.5367 119.415 28.5191V28.3492H117.966V28.5191C118.391 28.5433 118.538 28.6219 118.569 28.8957C118.588 29.0662 118.612 29.3455 118.612 29.9042V31.3994H118.593L116.032 28.3492ZM101.86 13.5941H113.871C113.895 9.29179 111.42 5.6675 107.225 5.6675C103.176 5.6675 100.518 9.2533 100.518 13.4363C100.518 17.6792 103.115 21.2732 107.225 21.2732C108.06 21.2732 108.85 21.1281 109.576 20.8636V19.3904C108.921 19.7231 108.191 19.9068 107.403 19.9068C104.198 19.9068 101.772 17.3828 101.86 13.5941ZM101.86 12.237C102.108 9.41662 104.442 7.02242 107.255 7.02242C110.096 7.02242 112.192 9.4837 112.521 12.237H101.86ZM94.2867 21.7566L100.602 5.98754H99.2291L94.3168 18.3231L89.3177 5.98754H87.9382L94.2867 21.7566ZM88.344 28.3492H86.7538V28.5191C87.239 28.5609 87.2879 28.5862 87.2879 29.1327V30.6521C87.2879 31.3625 87.4596 31.8189 87.8276 32.0977C88.0983 32.3039 88.454 32.3892 88.8108 32.3892C89.216 32.3892 89.6279 32.2616 89.9102 31.9701C90.266 31.5995 90.376 31.0837 90.376 30.3661V29.8613C90.376 29.3027 90.3882 29.0409 90.4071 28.877C90.4377 28.6279 90.5789 28.5433 90.9474 28.5191V28.3492H89.4867V28.5191C89.9164 28.5493 90.0453 28.6219 90.082 28.8594C90.107 29.0475 90.1253 29.3027 90.1253 29.8613V30.3238C90.1253 31.3257 89.8485 32.0554 88.9637 32.0554C88.2022 32.0554 87.8093 31.4967 87.8093 30.5185V29.1327C87.8093 28.5862 87.8587 28.5493 88.344 28.5191V28.3492ZM84.8317 20.9455H86.1796V0.606362H84.8317V20.9455ZM83.7562 31.5027V29.1019C83.7562 28.5862 83.8113 28.5548 84.2965 28.5191V28.3492H82.6946V28.5191C83.1921 28.5548 83.2349 28.5862 83.2349 29.1019V31.533C83.2349 32.0499 83.186 32.0922 82.6702 32.128V32.2979H85.4509C85.5065 32.1104 85.6349 31.533 85.6721 31.3444L85.4882 31.3081C85.3959 31.588 85.2786 31.7821 85.1747 31.9042C85.0335 32.062 84.8245 32.0922 84.4871 32.0922C84.2292 32.0922 84.0203 32.0796 83.8974 32.013C83.7868 31.952 83.7562 31.8305 83.7562 31.5027ZM70.7618 13.5941H82.7647C82.7963 9.29179 80.3146 5.66365 76.121 5.66365C72.0791 5.66365 69.4117 9.2533 69.4117 13.4363C69.4117 17.677 72.0185 21.2716 76.121 21.2716C76.9619 21.2716 77.7479 21.1281 78.4776 20.8636V19.3904C77.8218 19.7275 77.0842 19.9068 76.2994 19.9068C73.094 19.9068 70.674 17.3828 70.7618 13.5941ZM70.7618 12.237C71.0013 9.41937 73.3347 7.02242 76.1571 7.02242C78.9973 7.02242 81.0878 9.4837 81.424 12.237H70.7618ZM68.7053 29.1267V31.5451C68.7053 32.0378 68.6558 32.0862 68.0972 32.128V32.2979H71.0564C71.1114 32.1104 71.2342 31.539 71.2715 31.3383L71.0869 31.3141C71.0075 31.5572 70.8907 31.7639 70.7862 31.8855C70.6512 32.0433 70.48 32.0922 70.0131 32.0922C69.7057 32.0922 69.4906 32.0862 69.3739 32.013C69.2628 31.9344 69.2266 31.8063 69.2266 31.5209V30.3722H69.8102C70.3444 30.3722 70.3877 30.4085 70.4678 30.8456H70.6445V29.6799H70.4678C70.3877 30.0868 70.3566 30.1357 69.8036 30.1357H69.2266V28.7561C69.2266 28.573 69.2389 28.5609 69.4289 28.5609H69.8964C70.3383 28.5609 70.5044 28.6038 70.5895 28.7319C70.6695 28.8649 70.7312 28.9991 70.7862 29.2543L70.9641 29.2235C70.9458 28.9139 70.9152 28.5009 70.9152 28.3492H68.1772V28.5191C68.6558 28.5609 68.7053 28.5796 68.7053 29.1267ZM68.0327 13.3681C68.0327 8.99871 65.4026 5.6631 61.2684 5.6631C59.1408 5.6631 57.1043 6.70129 55.9426 8.5742H55.8798V0.606362H54.5308V13.4005C54.5308 16.3727 55.8237 18.3726 55.8237 18.3726C56.8452 20.2823 59.1719 21.2716 61.2079 21.2716C65.4026 21.2716 68.0327 17.7424 68.0327 13.3681ZM66.6904 13.3681C66.6904 16.8027 64.6233 19.9068 61.2379 19.9068C57.824 19.9068 55.7881 16.9006 55.7881 13.4005C55.7881 9.83893 57.7979 7.02132 61.3018 7.02132C64.5 7.02132 66.6904 10.099 66.6904 13.3681ZM72.4943 32.128V32.2979H73.8999V32.128C73.4881 32.0796 73.4575 32.0191 73.6048 31.7579C73.8016 31.3994 74.0533 30.9798 74.3485 30.5305C74.7353 31.1261 75.0116 31.5819 75.1655 31.8305C75.2822 32.0312 75.2395 32.0862 74.8582 32.128V32.2979H76.4728V32.128C76.0493 32.0862 75.9081 31.9949 75.6257 31.5693C75.3312 31.1261 74.9932 30.5971 74.6558 30.0747C75.0733 29.4484 75.2761 29.163 75.4051 28.987C75.6813 28.6279 75.7975 28.5669 76.2516 28.5191V28.3492H74.8459V28.5191C75.2572 28.5669 75.2884 28.6279 75.135 28.8957C74.9754 29.1932 74.7903 29.4852 74.5324 29.88C74.2623 29.4726 74.0289 29.1201 73.826 28.7742C73.7337 28.6159 73.746 28.5609 74.115 28.5191V28.3492H72.611V28.5191C73.0468 28.5669 73.1318 28.6345 73.3902 29.0294C73.6053 29.3692 73.8938 29.8195 74.2134 30.3298C73.6782 31.1558 73.3597 31.5935 73.2124 31.7821C73.034 32.013 72.8439 32.0922 72.4943 32.128ZM77.5911 30.3782C77.5911 31.3444 78.2598 32.3892 79.7888 32.3892C80.2312 32.3892 80.747 32.2676 80.9188 32.2253C81.0294 32.0251 81.1834 31.5753 81.269 31.296L81.0911 31.2289C80.7837 31.8371 80.4519 32.1709 79.826 32.1709C78.8923 32.1709 78.217 31.3928 78.217 30.2567C78.217 29.3329 78.7633 28.4762 79.7888 28.4762C80.4519 28.4762 80.821 28.7379 80.9805 29.3818L81.1645 29.3395C81.1278 29.0112 81.0911 28.7682 81.0416 28.4217C80.8699 28.3915 80.4519 28.2579 79.9544 28.2579C78.5849 28.2579 77.5911 29.1019 77.5911 30.3782ZM92.5509 31.1866L92.3725 31.2289C92.4097 31.5209 92.4892 32.0433 92.5387 32.1709C92.5932 32.2011 92.6854 32.244 92.8394 32.2984C92.9922 32.3408 93.189 32.3892 93.4408 32.3892C94.2578 32.3892 94.8042 31.8794 94.8042 31.241C94.8042 30.5602 94.2212 30.2749 93.742 30.0324C93.2568 29.7833 92.9617 29.5759 92.9617 29.1327C92.9617 28.8045 93.1701 28.4641 93.6437 28.4641C94.1778 28.4641 94.3373 28.8836 94.4479 29.2724L94.6258 29.2361C94.5774 28.8528 94.5463 28.6158 94.5219 28.3975C94.289 28.325 94.0311 28.2579 93.7482 28.2579C92.9556 28.2579 92.4831 28.7561 92.4831 29.3395C92.4831 30.0263 93.1029 30.3298 93.4964 30.5366C93.9571 30.7796 94.2951 30.9919 94.2951 31.4417C94.2951 31.8855 94.0183 32.1709 93.5575 32.1709C92.9244 32.1709 92.6488 31.5572 92.5509 31.1866ZM97.8562 28.3492H96.2293V28.5191C96.7334 28.5548 96.7818 28.5917 96.7818 29.108V31.539C96.7818 32.0554 96.7334 32.0922 96.2293 32.128V32.2979H97.8562V32.128C97.3526 32.0922 97.3032 32.062 97.3032 31.539V29.108C97.3032 28.5917 97.3526 28.5548 97.8562 28.5191V28.3492ZM100.749 28.3492H99.2446V28.5251C99.6065 28.5548 99.7048 28.6038 99.8827 29.0596C100.239 29.9405 100.743 31.2465 101.154 32.3589H101.345C101.805 31.1074 102.456 29.5633 102.622 29.169C102.855 28.6219 102.935 28.5669 103.352 28.5191V28.3492H101.971V28.5191C102.468 28.5796 102.506 28.6279 102.388 28.9744C102.192 29.582 101.725 30.767 101.418 31.5264H101.406C100.994 30.4805 100.546 29.3087 100.386 28.877C100.287 28.6104 100.313 28.5669 100.749 28.5191V28.3492ZM104.673 32.128V32.2979H107.632C107.687 32.1104 107.81 31.539 107.848 31.3383L107.663 31.3141C107.584 31.5572 107.467 31.7639 107.362 31.8855C107.227 32.0433 107.056 32.0922 106.589 32.0922C106.281 32.0922 106.067 32.0862 105.95 32.013C105.839 31.9344 105.803 31.8063 105.803 31.5209V30.3722H106.386C106.921 30.3722 106.964 30.4085 107.044 30.8456H107.221V29.6799H107.044C106.964 30.0868 106.933 30.1357 106.38 30.1357H105.803V28.7561C105.803 28.573 105.814 28.5609 106.005 28.5609H106.472C106.914 28.5609 107.08 28.6038 107.166 28.7319C107.246 28.8649 107.307 28.9991 107.362 29.2543L107.541 29.2235C107.522 28.9139 107.491 28.5009 107.491 28.3492H104.753V28.5191C105.232 28.5609 105.281 28.5796 105.281 29.1267V31.5451C105.281 32.0378 105.232 32.0862 104.673 32.128ZM113.723 28.3492H112.097V28.5191C112.599 28.5548 112.649 28.5917 112.649 29.108V31.539C112.649 32.0554 112.599 32.0922 112.097 32.128V32.2979H113.723V32.128C113.22 32.0922 113.17 32.062 113.17 31.539V29.108C113.17 28.5917 113.22 28.5548 113.723 28.5191V28.3492ZM120.854 28.1974C120.841 28.5312 120.81 28.926 120.78 29.29H120.957C121.031 29.0233 121.08 28.8529 121.154 28.75C121.233 28.6104 121.356 28.5609 121.866 28.5609H122.247V31.5511C122.247 32.0312 122.198 32.0922 121.639 32.128V32.2979H123.401V32.128C122.817 32.0922 122.769 32.0312 122.769 31.5511V28.5609H123.204C123.666 28.5609 123.769 28.6038 123.867 28.75C123.941 28.8468 123.997 28.9991 124.065 29.29L124.242 29.2724C124.211 28.9199 124.181 28.4767 124.181 28.1974H124.052C123.953 28.3134 123.904 28.3492 123.738 28.3492H121.313C121.141 28.3492 121.062 28.3376 120.975 28.1974H120.854ZM125.619 32.128V32.2979H128.578C128.633 32.1104 128.756 31.539 128.792 31.3383L128.608 31.3141C128.528 31.5572 128.412 31.7639 128.307 31.8855C128.173 32.0433 128.001 32.0922 127.533 32.0922C127.227 32.0922 127.012 32.0862 126.895 32.013C126.784 31.9344 126.748 31.8063 126.748 31.5209V30.3722H127.331C127.866 30.3722 127.909 30.4085 127.989 30.8456H128.167V29.6799H127.989C127.909 30.0868 127.879 30.1357 127.325 30.1357H126.748V28.7561C126.748 28.573 126.76 28.5609 126.95 28.5609H127.417C127.86 28.5609 128.025 28.6038 128.112 28.7319C128.191 28.8649 128.252 28.9991 128.307 29.2543L128.485 29.2235C128.467 28.9139 128.437 28.5009 128.437 28.3492H125.699V28.5191C126.177 28.5609 126.226 28.5796 126.226 29.1267V31.5451C126.226 32.0378 126.177 32.0862 125.619 32.128ZM136.69 28.3492H135.064V28.5191C135.567 28.5548 135.616 28.5917 135.616 29.108V31.539C135.616 32.0554 135.567 32.0922 135.064 32.128V32.2979H136.69V32.128C136.186 32.0922 136.138 32.062 136.138 31.539V29.108C136.138 28.5917 136.186 28.5548 136.69 28.5191V28.3492ZM138.165 30.3661C138.165 31.533 139.048 32.3892 140.159 32.3892C141.284 32.3892 142.21 31.588 142.21 30.2749C142.21 29.0596 141.272 28.2579 140.227 28.2579C138.937 28.2579 138.165 29.2724 138.165 30.3661ZM138.79 30.1962C138.79 29.0596 139.416 28.4762 140.106 28.4762C140.91 28.4762 141.585 29.1575 141.585 30.4393C141.585 31.6061 140.97 32.1709 140.289 32.1709C139.423 32.1709 138.79 31.3389 138.79 30.1962ZM148.763 31.1866L148.586 31.2289C148.623 31.5209 148.702 32.0433 148.751 32.1709C148.807 32.2011 148.899 32.244 149.052 32.2984C149.205 32.3408 149.402 32.3892 149.654 32.3892C150.472 32.3892 151.017 31.8794 151.017 31.241C151.017 30.5602 150.434 30.2749 149.955 30.0324C149.469 29.7833 149.175 29.5759 149.175 29.1327C149.175 28.8045 149.384 28.4641 149.857 28.4641C150.391 28.4641 150.55 28.8836 150.662 29.2724L150.839 29.2361C150.79 28.8528 150.759 28.6158 150.735 28.3975C150.502 28.325 150.244 28.2579 149.961 28.2579C149.169 28.2579 148.696 28.7561 148.696 29.3395C148.696 30.0263 149.316 30.3298 149.709 30.5366C150.17 30.7796 150.508 30.9919 150.508 31.4417C150.508 31.8855 150.231 32.1709 149.771 32.1709C149.139 32.1709 148.862 31.5572 148.763 31.1866Z" fill="#1E1E1E"/>
</g>
<mask id="mask1_2007_119" style="mask-type:luminance" maskUnits="userSpaceOnUse" x="-128" y="-20" width="891" height="2674">
<path d="M-127.22 2653.2H762.087V-19.2366H-127.22V2653.2Z" fill="white"/>
</mask>
<g mask="url(#mask1_2007_119)">
<path d="M31.9341 2.85971C33.2692 1.52404 34.0913 0.196066 33.9495 0.0228522C33.7739 -0.117918 32.4305 0.695911 31.0815 2.01619C30.9137 1.74894 30.7175 1.49105 30.4801 1.2568C29.762 0.545245 28.8627 0.139978 27.9595 0.0382489C28.4236 0.199365 28.8644 0.466061 29.2434 0.841632C29.6553 1.24855 29.9332 1.73135 30.0888 2.23504C30.1577 2.46324 30.1983 2.69089 30.2161 2.9191C30.2367 3.133 30.2228 3.34361 30.1983 3.55311L30.1611 3.71368C28.4464 4.8228 26.5644 5.69162 24.5801 6.33388C23.7514 3.09726 20.8122 0.692613 17.2839 0.692613C13.7561 0.692613 10.8186 3.09561 9.98826 6.32948C8.00844 5.68777 6.13089 4.8206 4.42008 3.71313L4.3834 3.55311C4.35783 3.34361 4.34505 3.133 4.36395 2.9191C4.3834 2.69089 4.42231 2.46324 4.49234 2.23504C4.64852 1.73135 4.92588 1.24855 5.33663 0.841632C5.71736 0.466061 6.15812 0.199365 6.62223 0.0382489C5.71847 0.139978 4.81916 0.545245 4.10049 1.2568C3.86371 1.49105 3.66806 1.74894 3.49909 2.01619C2.15068 0.695911 0.807272 -0.117918 0.63219 0.0228522C0.489345 0.196066 1.31195 1.52404 2.64647 2.85971C2.37634 3.02687 2.11733 3.21878 1.87944 3.45468C1.15966 4.16569 0.750023 5.05375 0.647752 5.94951C0.811718 5.49036 1.08018 5.05265 1.45925 4.67818C1.87111 4.27126 2.35856 3.99687 2.86935 3.84235C3.09835 3.77307 3.33068 3.73458 3.55912 3.71533C3.77534 3.69718 3.98877 3.70928 4.19998 3.73458L4.36839 3.77087C5.48892 5.46561 6.366 7.32643 7.01464 9.28786C3.73976 10.105 1.30584 13.0144 1.30584 16.5079C1.30584 19.9996 3.73754 22.9074 7.01019 23.7262C6.361 25.6849 5.48447 27.5429 4.36506 29.236L4.19998 29.2734C3.98877 29.2987 3.77589 29.3108 3.55912 29.2916C3.32902 29.2734 3.09835 29.2344 2.86769 29.1651C2.35856 29.0111 1.87166 28.7356 1.45925 28.3298C1.08074 27.9548 0.810051 27.5176 0.647752 27.0585C0.751134 27.9515 1.15966 28.8418 1.87944 29.5522C2.11622 29.787 2.37634 29.98 2.64647 30.1483C1.31307 31.4812 0.490456 32.8108 0.63219 32.9846C0.807272 33.1248 2.14957 32.311 3.49909 30.9918C3.66806 31.2585 3.8626 31.5148 4.10104 31.7507C4.81916 32.4628 5.71792 32.8669 6.62223 32.9687C6.15812 32.8059 5.71625 32.5408 5.33663 32.1664C4.92699 31.7584 4.64852 31.2756 4.49234 30.7713C4.42231 30.5448 4.3834 30.3155 4.36506 30.0889C4.3456 29.8745 4.35783 29.6638 4.3834 29.4538L4.42064 29.2877C6.13256 28.1797 8.01233 27.3131 9.99382 26.6714C10.8209 29.9091 13.7606 32.3159 17.2917 32.3159C20.8206 32.3159 23.7603 29.9091 24.5879 26.6719C26.5694 27.3131 28.4486 28.1803 30.1611 29.2877L30.1983 29.4538C30.2228 29.6638 30.235 29.8745 30.2161 30.0889C30.1983 30.3155 30.1577 30.5448 30.0888 30.7713C29.9332 31.2756 29.6536 31.7584 29.2434 32.1664C28.8644 32.5408 28.4236 32.8059 27.9595 32.9687C28.8627 32.8669 29.762 32.4628 30.4801 31.7507C30.7191 31.5148 30.9137 31.2585 31.0815 30.9918C32.4321 32.311 33.7739 33.1248 33.9495 32.9846C34.0913 32.8108 33.2681 31.4812 31.9341 30.1483C32.2037 29.98 32.4644 29.787 32.7023 29.5522C33.4221 28.8418 33.8306 27.9515 33.934 27.0585C33.7706 27.5176 33.5004 27.9548 33.1214 28.3298C32.7101 28.7356 32.2226 29.0111 31.7135 29.1651C31.4823 29.2344 31.2527 29.2734 31.0215 29.2916C30.8058 29.3108 30.593 29.2987 30.3817 29.2734L30.2167 29.236C29.095 27.5407 28.2174 25.6805 27.5688 23.719C30.8386 22.8986 33.2692 19.9914 33.2692 16.5007C33.2692 13.01 30.8386 10.1033 27.5688 9.28291C28.2174 7.32312 29.0934 5.46396 30.2133 3.77087L30.3817 3.73458C30.593 3.70928 30.8058 3.69718 31.0215 3.71533C31.251 3.73458 31.4823 3.77307 31.7124 3.84235C32.2226 3.99687 32.7101 4.27126 33.1214 4.67818C33.5004 5.05265 33.7689 5.49036 33.934 5.94951C33.8306 5.05375 33.4221 4.16569 32.7023 3.45468C32.4633 3.21878 32.2037 3.02687 31.9341 2.85971ZM24.8419 24.8452C24.8419 24.5296 24.8219 24.2205 24.7847 23.9154C25.0887 23.9511 25.4016 23.972 25.7173 23.972C25.8452 23.972 25.9636 23.9406 26.0897 23.9346C26.3015 24.6011 26.5299 25.262 26.7984 25.9087C26.1453 25.6431 25.4778 25.4176 24.8047 25.2081C24.8108 25.085 24.8419 24.9695 24.8419 24.8452ZM11.0732 26.3574C13.0575 25.818 15.1323 25.4952 17.2895 25.4952C19.4483 25.4952 21.5242 25.8185 23.5085 26.3579C22.8182 29.1283 20.302 31.1975 17.2917 31.1975C14.2797 31.1975 11.7641 29.1283 11.0732 26.3574ZM7.78333 25.9087C8.05068 25.2642 8.27801 24.6049 8.48922 23.9412C8.61372 23.9472 8.73156 23.978 8.85773 23.978C9.17454 23.978 9.48914 23.9599 9.7965 23.9214C9.75871 24.2238 9.73981 24.5329 9.73981 24.8452C9.73981 24.9695 9.77038 25.085 9.77649 25.2081C9.10395 25.4176 8.43586 25.6431 7.78333 25.9087ZM7.3309 10.3552C7.87504 12.3172 8.20186 14.3688 8.20186 16.5018C8.20186 18.6392 7.87449 20.6941 7.32812 22.6589C4.5268 21.9759 2.4347 19.4866 2.4347 16.5079C2.4347 13.528 4.52791 11.0381 7.3309 10.3552ZM9.73203 8.1639C9.73203 8.47843 9.75259 8.78912 9.79039 9.09375C9.48469 9.05636 9.17287 9.03712 8.85773 9.03712C8.73322 9.03712 8.61706 9.06791 8.49367 9.07396C8.28134 8.40585 8.05235 7.74214 7.78333 7.09437C8.43364 7.35887 9.09951 7.58322 9.76982 7.79218C9.76371 7.9181 9.73203 8.03688 9.73203 8.1639ZM23.4985 6.64732C21.517 7.1851 19.4444 7.50844 17.2895 7.50844C15.1301 7.50844 13.053 7.18455 11.0671 6.64402C11.7602 3.8759 14.2747 1.80998 17.2839 1.80998C20.2942 1.80998 22.8071 3.87755 23.4985 6.64732ZM23.479 10.3728L24.9175 10.1968C25.181 10.1638 25.4511 10.1462 25.7173 10.1462C25.7412 10.1462 25.7629 10.1528 25.7862 10.1534C25.236 12.2105 24.9281 14.3369 24.9281 16.5018C24.9281 18.6656 25.2354 20.7915 25.7862 22.8486C25.7629 22.8491 25.7412 22.8552 25.7173 22.8552C25.4522 22.8552 25.1854 22.8376 24.9219 22.8046L23.4852 22.6303L23.6636 24.0528C23.6947 24.3135 23.713 24.5813 23.713 24.8452C23.713 24.8667 23.7069 24.8864 23.7069 24.9073C21.6271 24.3624 19.4777 24.0572 17.2895 24.0572C15.1034 24.0572 12.9547 24.3624 10.8753 24.9068C10.8753 24.8859 10.8692 24.8667 10.8692 24.8452C10.8692 24.5829 10.8842 24.3179 10.9176 24.0572L11.0949 22.6363L9.6581 22.8128C9.39298 22.8436 9.12452 22.8612 8.85773 22.8612C8.83605 22.8612 8.81548 22.8552 8.79381 22.8546C9.34518 20.7959 9.65421 18.6684 9.65421 16.5018C9.65421 14.3391 9.34629 12.2155 8.79659 10.16C8.81771 10.16 8.8366 10.1539 8.85773 10.1539C9.12118 10.1539 9.38964 10.1715 9.65143 10.2029L11.0893 10.3772L10.9115 8.95573C10.8781 8.69344 10.8609 8.42784 10.8609 8.1639C10.8609 8.14025 10.8676 8.11826 10.8681 8.09406C12.9497 8.6401 15.1007 8.94529 17.2895 8.94529C19.4744 8.94529 21.6198 8.6412 23.6969 8.09791C23.6975 8.12046 23.7036 8.14135 23.7036 8.1639C23.7036 8.42509 23.6886 8.69069 23.658 8.94968L23.479 10.3728ZM26.7984 7.09437C26.5299 7.73994 26.302 8.40145 26.0903 9.06736C25.9641 9.06076 25.8452 9.02997 25.7173 9.02997C25.3983 9.02997 25.0854 9.04976 24.7785 9.08716C24.8141 8.78417 24.8358 8.47678 24.8358 8.1639C24.8358 8.03797 24.8041 7.9214 24.798 7.79713C25.4733 7.58707 26.1431 7.36107 26.7984 7.09437ZM27.2519 10.3502C30.0499 11.0359 32.1392 13.5236 32.1392 16.5007C32.1392 19.4783 30.0499 21.966 27.2519 22.6517C26.7072 20.6886 26.3804 18.6359 26.3804 16.5018C26.3804 14.3666 26.7072 12.3133 27.2519 10.3502ZM23.3957 16.504C22.1034 16.504 20.2737 13.7034 18.9553 15.1733C18.9075 15.1155 18.8658 15.0529 18.8119 15.0001C18.7563 14.9456 18.6946 14.9049 18.6345 14.8576C20.1225 13.5533 17.2917 11.7437 17.2917 10.4641C17.2917 11.7437 14.4587 13.5517 15.9438 14.856C15.886 14.9049 15.8243 14.9456 15.7688 15.0001C15.7148 15.0545 15.6726 15.1155 15.6254 15.1733C14.3047 13.7034 12.4772 16.504 11.186 16.504C12.4772 16.504 14.3047 19.3051 15.6254 17.8353C15.6726 17.8947 15.7148 17.9557 15.7688 18.0085C15.8243 18.0629 15.886 18.1053 15.9438 18.1509C14.4587 19.4569 17.2917 21.2666 17.2917 22.5439C17.2917 21.2666 20.1225 19.4552 18.6345 18.1509C18.6929 18.1036 18.7563 18.0629 18.8119 18.0096C18.8674 17.9557 18.9058 17.893 18.9553 17.8336C20.2748 19.3051 22.1034 16.504 23.3957 16.504ZM18.4867 17.6863C17.8264 18.339 16.7548 18.339 16.0945 17.6863C15.4358 17.0352 15.4342 15.975 16.0945 15.3212C16.752 14.6685 17.8264 14.6701 18.485 15.3212C19.1448 15.975 19.1448 17.0352 18.4867 17.6863Z" fill="#1E1E1E"/>
</g>
</g>
<defs>
<clipPath id="clip0_2007_119">
<rect width="163.075" height="33.1745" fill="white" transform="translate(0.616211 -0.0012207)"/>
</clipPath>
</defs>
</svg>
