<svg width="171" height="20" viewBox="0 0 171 20" fill="none" xmlns="http://www.w3.org/2000/svg">
<path d="M10.626 17.5292L11.3697 19.521H12.6917L7.50687 5.37354H6.10221L0.896729 19.521H2.21876L2.94174 17.5292H10.626ZM6.80454 7.05726L10.1922 16.3794H3.37553L6.80454 7.05726Z" fill="#1E1E1E"/>
<path d="M53.5722 5.37354H42.8101V6.585H47.5611V19.521H48.8212V6.585H53.5722V5.37354Z" fill="#1E1E1E"/>
<path d="M71.6042 11.1023H65.0147V6.585H74.0004V5.37354H63.7546V19.521H65.0147V12.2727H71.6042V11.1023Z" fill="#1E1E1E"/>
<path d="M113.103 15.3754C113.103 14.9647 113.103 13.6917 112.174 12.6239C111.74 12.1106 111.017 11.5767 110.026 11.3303C110.914 10.7759 111.368 9.8314 111.368 8.72261C111.368 7.69594 110.996 6.93621 110.294 6.29968C109.716 5.76581 108.745 5.41675 107.671 5.41675H103.188V19.5436H109.096C110.232 19.5436 111.244 19.1124 111.885 18.4554C112.649 17.6751 113.103 16.6074 113.103 15.3754ZM104.469 6.60768H107.402C108.373 6.60768 109.013 6.75141 109.53 7.26474C109.943 7.67541 110.15 8.20927 110.15 8.74314C110.15 9.37967 109.943 9.93407 109.509 10.3858C109.055 10.8786 108.29 11.1045 107.588 11.1045H104.469V6.60768ZM104.469 12.2543H108.497C109.468 12.2543 110.48 12.5623 111.079 13.1783C111.637 13.7533 111.885 14.4925 111.885 15.2317C111.885 16.0941 111.616 16.9154 110.996 17.5314C110.48 18.0447 109.695 18.2911 108.91 18.2911H104.49V12.2543H104.469Z" fill="#1E1E1E"/>
<path d="M156.503 12.4099C156.503 16.3933 159.767 19.6171 163.754 19.6171C166.687 19.6171 169.331 17.8717 170.446 15.1819L170.488 15.0587L169.352 14.5864L169.31 14.7096C168.36 16.9477 166.191 18.4056 163.733 18.4056C160.407 18.4056 157.701 15.7157 157.701 12.4099C157.701 9.63789 159.602 7.2355 162.308 6.57843L162.432 6.53737L162.142 5.34644L162.019 5.3875C158.796 6.1883 156.503 9.06296 156.503 12.4099Z" fill="#1E1E1E"/>
<path d="M146.072 5.37354H144.812V19.521H146.072V5.37354Z" fill="#1E1E1E"/>
<path d="M27.9765 5.37354H22.6265V19.521H23.8865V16.2767C26.7991 16.2767 27.3982 16.2972 28.5136 16.2356L31.0131 19.521H32.4797L29.753 16.0098C32.6656 14.9626 33.3266 12.4986 33.3266 10.6506C33.3266 9.95246 33.1407 7.96073 31.4056 6.5234C30.5173 5.76367 29.4225 5.37354 27.9765 5.37354ZM27.5221 15.0652C26.7165 15.0652 23.9072 15.0652 23.9072 15.0652V6.585H27.4188C29.1746 6.585 29.877 6.85193 30.6619 7.52953C31.5088 8.28926 32.1079 9.39806 32.1079 10.6301C32.1079 12.2727 31.6534 13.1556 30.7859 13.977C29.815 14.901 28.2864 15.0652 27.5221 15.0652Z" fill="#1E1E1E"/>
<path d="M91.0634 17.5292L91.807 19.521H93.129L87.9442 5.37354H86.5602L81.3547 19.521H82.6768L83.3998 17.5292H91.0634ZM87.2419 7.05726L90.6296 16.3794H83.8129L87.2419 7.05726Z" fill="#1E1E1E"/>
<path d="M128.885 5.37354H123.535V19.521H124.795V16.2767C127.708 16.2767 128.307 16.2972 129.423 16.2356L131.922 19.521H133.389L130.662 16.0098C133.575 14.9626 134.236 12.4986 134.236 10.6506C134.236 9.95246 134.05 7.96073 132.314 6.5234C131.426 5.76367 130.331 5.37354 128.885 5.37354ZM128.431 15.0652C127.625 15.0652 124.816 15.0652 124.816 15.0652V6.585H128.328C130.084 6.585 130.786 6.85193 131.571 7.52953C132.418 8.28926 133.017 9.39806 133.017 10.6301C133.017 12.2727 132.562 13.1556 131.695 13.977C130.724 14.901 129.216 15.0652 128.431 15.0652Z" fill="#1E1E1E"/>
<path d="M142.375 0.977295L144.689 4.01622H145.969L143.615 0.977295H142.375Z" fill="#1E1E1E"/>
</svg>
