<svg width="115" height="20" viewBox="0 0 115 20" fill="none" xmlns="http://www.w3.org/2000/svg">
<g clip-path="url(#clip0_2007_39)">
<path d="M20.7952 1.62622L14.4749 13.5592H17.4914L18.7842 11.1151H23.2371L24.4581 8.59909H20.0051L21.9443 4.93294L22.3753 3.85466L22.878 4.93294L27.1155 13.5592H30.2757L24.2426 1.62622H20.7952Z" fill="#1E1E1E"/>
<path d="M41.1199 10.7556L37.026 1.62622H33.2913V13.5592H36.0205V5.57991L39.6834 13.5592H42.4845L46.2192 5.57991V13.5592H49.0203V1.62622H45.3573L41.1199 10.7556Z" fill="#1E1E1E"/>
<path d="M71.0711 9.67737L64.1762 1.62622H61.016V13.5592H63.817V5.36425L70.8556 13.5592H73.8721V1.62622H71.0711V9.67737Z" fill="#1E1E1E"/>
<path d="M107.7 1.62622L103.535 10.7556L99.4408 1.62622H95.7061V13.5592H98.4353V5.57991L102.098 13.5592H104.899L108.634 5.57991V13.5592H111.363V1.62622H107.7Z" fill="#1E1E1E"/>
<path d="M82.9933 1.62622L76.673 13.5592H79.6895L80.9823 11.1151H85.4353L86.728 8.59909H82.2751L84.1425 4.93294L84.6452 3.85466L85.0761 4.93294L89.3855 13.5592H92.4738L86.4408 1.62622H82.9933Z" fill="#1E1E1E"/>
<path d="M56.4916 1.62622H53.5469V13.6311H56.4916V1.62622Z" fill="#1E1E1E"/>
<path d="M4.56526 1.55054H1.69238V13.6273H12.4657V11.1832H4.56526V1.55054Z" fill="#1E1E1E"/>
<path d="M3.34429 19.0894C2.12331 19.0894 1.69238 18.6581 1.69238 18.1549H2.4106C2.4106 18.3706 2.69789 18.5862 3.34429 18.5862C3.99069 18.5862 4.13433 18.4424 4.13433 18.2987C4.13433 18.083 3.99069 18.0111 3.41611 17.9393C3.27247 17.9393 2.98518 17.8674 2.84153 17.8674C1.97967 17.7955 1.69238 17.5079 1.69238 17.0766C1.69238 16.5734 2.19514 16.2859 3.20064 16.2859C4.27797 16.2859 4.7089 16.7172 4.7089 17.1485H4.06251C4.06251 16.9329 3.77522 16.7891 3.20064 16.7891C2.55425 16.7891 2.4106 16.861 2.4106 17.0766C2.4106 17.2204 2.55425 17.2923 3.20064 17.3642C3.34429 17.3642 3.7034 17.4361 3.77522 17.4361C4.49344 17.5079 4.78073 17.7955 4.78073 18.2268C4.85255 18.8019 4.34979 19.0894 3.34429 19.0894Z" fill="#1E1E1E"/>
<path d="M8.08443 19.0894C7.15075 19.0894 6.57617 18.73 6.57617 17.9393V16.2859H7.22257V17.9393C7.22257 18.2987 7.50986 18.5143 8.08443 18.5143C8.58719 18.5143 8.9463 18.2987 8.9463 17.9393V16.2859H9.59269V18.0111C9.66452 18.73 9.08994 19.0894 8.08443 19.0894Z" fill="#1E1E1E"/>
<path d="M14.3336 17.943C14.19 18.1587 13.9027 18.3025 13.4717 18.3025C13.3999 18.3025 12.2508 18.3025 12.2508 18.3025V19.0932H11.6044V16.3616H13.5436C13.9745 16.3616 14.2618 16.4335 14.4054 16.6491C14.5491 16.7929 14.6209 17.0085 14.6209 17.368C14.5491 17.5836 14.4772 17.7993 14.3336 17.943ZM13.8309 17.0085C13.759 16.9367 13.6154 16.8648 13.3281 16.8648H12.1789V17.7274H13.2563C13.5436 17.7274 13.6872 17.6555 13.759 17.5836C13.8309 17.5117 13.8309 17.4399 13.8309 17.368C13.8309 17.1523 13.8309 17.0804 13.8309 17.0085Z" fill="#1E1E1E"/>
<path d="M16.2715 19.0932V16.3616H18.9289V16.8648H16.9179V17.4399H18.9289V17.943H16.9179V18.5181H19.0007V19.0932H16.2715Z" fill="#1E1E1E"/>
<path d="M23.5989 17.5798C23.5271 17.7236 23.3834 17.8674 23.168 17.8674L23.958 19.0175H23.2398L22.5216 17.9393H21.4443V19.0175H20.7979V16.2859H22.737C23.168 16.2859 23.4553 16.4297 23.5989 16.5734C23.6707 16.7172 23.7426 16.861 23.7426 17.0766C23.7426 17.2923 23.6707 17.5079 23.5989 17.5798ZM23.0243 17.0047C22.9525 16.9329 22.8807 16.861 22.6652 16.861H21.4443V17.4361H22.737C22.8807 17.4361 23.0243 17.3642 23.0243 17.2923C23.0243 17.2204 23.0962 17.1485 23.0962 17.0766C23.0962 17.0766 23.0962 17.0047 23.0243 17.0047Z" fill="#1E1E1E"/>
<path d="M26.326 16.3616H25.6796V19.0932H26.326V16.3616Z" fill="#1E1E1E"/>
<path d="M31.2105 16.7188C31.4259 16.9344 31.4977 17.222 31.4977 17.6533C31.4977 18.0846 31.3541 18.3721 31.2105 18.5878C30.9232 18.8753 30.4922 19.091 29.774 19.091C29.1276 19.091 28.6967 18.9472 28.4094 18.5878C28.1939 18.3721 28.0503 18.0127 28.0503 17.6533C28.0503 17.2939 28.1221 17.0063 28.3376 16.7188C28.6249 16.3593 29.0558 16.2156 29.774 16.2156C30.4922 16.2875 30.9232 16.4312 31.2105 16.7188ZM30.7077 18.3002C30.8513 18.1565 30.9232 17.9408 30.9232 17.7252C30.9232 17.5095 30.8513 17.222 30.7077 17.1501C30.4922 17.0063 30.2768 16.8625 29.8458 16.8625C29.4149 16.8625 29.1276 17.0063 28.984 17.1501C28.8403 17.2939 28.7685 17.5095 28.7685 17.7252C28.7685 18.0127 28.8403 18.2284 28.984 18.3721C29.1994 18.5159 29.4149 18.5878 29.774 18.5878C30.2768 18.5878 30.4922 18.444 30.7077 18.3002Z" fill="#1E1E1E"/>
<path d="M36.0963 17.5798C36.0245 17.7236 35.8809 17.8674 35.6654 17.8674L36.4555 19.0175H35.7372L35.019 17.9393H33.9417V19.0175H33.2953V16.2859H35.2345C35.6654 16.2859 35.9527 16.4297 36.0963 16.5734C36.1682 16.7172 36.24 16.861 36.24 17.0766C36.24 17.2923 36.1682 17.5079 36.0963 17.5798ZM35.5218 17.0047C35.4499 16.9329 35.3781 16.861 35.1627 16.861H33.9417V17.4361H35.2345C35.3781 17.4361 35.5218 17.3642 35.5218 17.2923C35.5218 17.2204 35.5936 17.1485 35.5936 17.0766C35.5936 17.0766 35.5936 17.0047 35.5218 17.0047Z" fill="#1E1E1E"/>
<path d="M42.9888 19.0932L41.4087 17.1523V19.0932H40.7623V16.3616H41.4805L43.0606 18.1587V16.3616H43.707V19.0932H42.9888Z" fill="#1E1E1E"/>
<path d="M45.9348 19.0932H45.2166L46.653 16.3616H47.443L48.8077 19.0932H48.0894L47.874 18.4462H46.2221L45.9348 19.0932ZM47.2276 17.0804L47.0839 16.8648L46.9403 17.0804L46.5093 17.943H47.5867L47.2276 17.0804Z" fill="#1E1E1E"/>
<path d="M51.6806 16.8648V19.0932H51.0342V16.8648H49.8132V16.3616H52.9016V16.8648H51.6806Z" fill="#1E1E1E"/>
<path d="M55.9906 19.0894C55.0569 19.0894 54.4823 18.73 54.4823 17.9393V16.2859H55.1287V17.9393C55.1287 18.2987 55.416 18.5143 55.9906 18.5143C56.4933 18.5143 56.8524 18.2987 56.8524 17.9393V16.2859H57.4988V18.0111C57.4988 18.73 56.9243 19.0894 55.9906 19.0894Z" fill="#1E1E1E"/>
<path d="M62.2393 17.5798C62.1675 17.7236 62.0238 17.8674 61.8084 17.8674L62.5984 19.0175H61.8802L61.162 17.9393H60.0846V19.0175H59.4382V16.2859H61.3774C61.8084 16.2859 62.0956 16.4297 62.2393 16.5734C62.3111 16.7172 62.3829 16.861 62.3829 17.0766C62.3829 17.2923 62.3111 17.5079 62.2393 17.5798ZM61.6647 17.0047C61.5929 16.9329 61.5211 16.861 61.3056 16.861H60.0846V17.4361H61.3774C61.5211 17.4361 61.6647 17.3642 61.6647 17.2923C61.6647 17.2204 61.7365 17.1485 61.7365 17.0766C61.7365 17.0766 61.7365 17.0047 61.6647 17.0047Z" fill="#1E1E1E"/>
<path d="M64.679 19.0932H63.9608L65.3973 16.3616H66.1873L67.5519 19.0932H66.8337L66.5464 18.5181H64.8945L64.679 19.0932ZM65.9 17.0804L65.8282 16.8648L65.6845 17.0804L65.2536 17.943H66.3309L65.9 17.0804Z" fill="#1E1E1E"/>
<path d="M69.2057 19.0932V16.3616H69.8521V18.5181H71.6476V19.0932H69.2057Z" fill="#1E1E1E"/>
<path d="M77.3914 19.0894C76.1704 19.0894 75.7395 18.6581 75.7395 18.1549H76.4577C76.4577 18.3706 76.745 18.5862 77.3914 18.5862C78.0378 18.5862 78.1814 18.4424 78.1814 18.2987C78.1814 18.083 78.0378 18.0111 77.4632 17.9393C77.3196 17.9393 77.0323 17.8674 76.8887 17.8674C76.0268 17.7955 75.7395 17.5079 75.7395 17.0766C75.7395 16.5734 76.2423 16.2859 77.2478 16.2859C78.3251 16.2859 78.756 16.7172 78.756 17.1485H78.0378C78.0378 16.9329 77.7505 16.7891 77.1759 16.7891C76.5295 16.7891 76.3859 16.861 76.3859 17.0766C76.3859 17.2204 76.5295 17.2923 77.1759 17.3642C77.3196 17.3642 77.6787 17.4361 77.7505 17.4361C78.4687 17.5079 78.756 17.7955 78.756 18.2268C78.8997 18.8019 78.3969 19.0894 77.3914 19.0894Z" fill="#1E1E1E"/>
<path d="M82.1335 19.0894C81.1998 19.0894 80.6252 18.73 80.6252 17.9393V16.2859H81.2716V17.9393C81.2716 18.2987 81.5589 18.5143 82.1335 18.5143C82.6363 18.5143 82.9954 18.2987 82.9954 17.9393V16.2859H83.6418V18.0111C83.7136 18.73 83.139 19.0894 82.1335 19.0894Z" fill="#1E1E1E"/>
<path d="M88.4525 17.5798C88.3807 17.7236 88.2371 17.8674 88.0216 17.8674L88.8117 19.0175H88.0934L87.3752 17.9393H86.2979V19.0175H85.6515V16.2859H87.5907C88.0216 16.2859 88.3089 16.4297 88.4525 16.5734C88.5244 16.7172 88.5962 16.861 88.5962 17.0766C88.5244 17.2923 88.5244 17.5079 88.4525 17.5798ZM87.878 17.0047C87.8061 16.9329 87.7343 16.861 87.5189 16.861H86.2979V17.4361H87.5907C87.7343 17.4361 87.878 17.3642 87.878 17.2923C87.878 17.2204 87.9498 17.1485 87.9498 17.0766C87.878 17.0766 87.878 17.0047 87.878 17.0047Z" fill="#1E1E1E"/>
<path d="M91.1836 16.8648V17.4399H92.9792V18.0149H91.1836V19.0932H90.5372V16.3616H93.1228V16.8648H91.1836Z" fill="#1E1E1E"/>
<path d="M94.9188 19.0932H94.2006L95.637 16.3616H96.427L97.7917 19.0932H97.0734L96.7862 18.5181H95.2779L94.9188 19.0932ZM96.2116 17.0804L96.0679 16.8648L95.9243 17.0804L95.4934 17.943H96.5707L96.2116 17.0804Z" fill="#1E1E1E"/>
<path d="M102.387 18.5181C102.171 18.8776 101.668 19.1651 100.878 19.1651C100.16 19.1651 99.6573 18.9494 99.4418 18.6619C99.2982 18.4462 99.1545 18.1587 99.1545 17.7993C99.1545 17.4399 99.2264 17.1523 99.37 16.9367C99.6573 16.5772 100.088 16.3616 100.806 16.3616C101.668 16.3616 102.099 16.6491 102.315 17.0804C102.387 17.2242 102.458 17.4399 102.458 17.5117H101.74C101.74 17.4399 101.668 17.2961 101.596 17.2242C101.453 17.0804 101.166 16.9367 100.735 16.9367C100.304 16.9367 100.016 17.0804 99.8728 17.2961C99.8009 17.4399 99.7291 17.5836 99.7291 17.7993C99.7291 18.0149 99.8009 18.2306 99.8728 18.3025C100.016 18.5181 100.376 18.6619 100.735 18.6619C101.166 18.6619 101.381 18.59 101.596 18.3744C101.668 18.3025 101.668 18.2306 101.74 18.0868H102.458C102.53 18.1587 102.53 18.3025 102.387 18.5181Z" fill="#1E1E1E"/>
<path d="M104.327 19.0932V16.3616H106.985V16.8648H104.974V17.4399H106.913V17.943H104.974V18.5181H106.985V19.0932H104.327Z" fill="#1E1E1E"/>
<path d="M110.287 19.0894C109.066 19.0894 108.635 18.6581 108.635 18.1549H109.353C109.353 18.3706 109.641 18.5862 110.287 18.5862C110.933 18.5862 111.077 18.4424 111.077 18.2987C111.077 18.083 110.933 18.0111 110.359 17.9393C110.215 17.9393 109.928 17.8674 109.784 17.8674C108.922 17.7955 108.635 17.5079 108.635 17.0766C108.635 16.5734 109.138 16.2859 110.143 16.2859C111.221 16.2859 111.652 16.7172 111.652 17.1485H110.933C110.933 16.9329 110.646 16.7891 110.071 16.7891C109.425 16.7891 109.281 16.861 109.281 17.0766C109.281 17.2204 109.425 17.2923 110.071 17.3642C110.215 17.3642 110.574 17.4361 110.646 17.4361C111.364 17.5079 111.652 17.7955 111.652 18.2268C111.795 18.8019 111.292 19.0894 110.287 19.0894Z" fill="#1E1E1E"/>
</g>
<defs>
<clipPath id="clip0_2007_39">
<rect width="114.197" height="18.6764" fill="white" transform="translate(0.469971 0.977295)"/>
</clipPath>
</defs>
</svg>
