<svg width="131" height="25" viewBox="0 0 131 25" fill="none" xmlns="http://www.w3.org/2000/svg">
<g clip-path="url(#clip0_2007_9)">
<path d="M35.8244 17.3298H37.9692V17.7025L37.4641 17.7413L37.3631 17.8422L37.0367 19.5812H39.2127L39.539 17.8578L39.438 17.7413L38.9717 17.6947V17.3298H41.1322V17.7025L40.6193 17.7413L40.5182 17.8422L39.7333 21.9956L39.8033 22.1121L40.3007 22.1664V22.5391H38.148V22.1586L38.6376 22.1121L38.762 21.9956L39.1194 20.047H36.9435L36.5782 21.9956L36.6637 22.1276L37.1611 22.1586V22.5391H34.9773V22.1586L35.4747 22.1199L35.599 21.9956L36.3839 17.8578L36.3062 17.7413L35.8244 17.7103V17.3298ZM44.566 18.7117H45.0245C44.9779 18.8515 44.8769 19.2474 44.7603 19.8917L44.5272 21.1494C44.4805 21.4056 44.4572 21.5919 44.4572 21.6929C44.4572 21.9568 44.6049 22.1121 44.7836 22.1121C44.939 22.1121 45.11 22.081 45.2965 22.0267V22.3139C44.8069 22.4925 44.4184 22.5856 44.123 22.5856C43.7423 22.5856 43.5402 22.3916 43.5402 22.0189V21.9801C43.105 22.3916 42.6853 22.6012 42.3046 22.6012C41.6051 22.6012 41.1855 22.081 41.1855 21.1882C41.1855 20.6293 41.3409 20.1169 41.6518 19.6433C42.0403 19.0533 42.6853 18.704 43.377 18.704C43.6645 18.704 43.9598 18.7738 44.2785 18.898L44.566 18.7117ZM43.6101 19.0844C43.5791 19.0844 43.548 19.0766 43.5091 19.0766C42.7864 19.0766 42.1802 19.8995 42.1802 21.0795C42.1802 21.6695 42.39 21.9724 42.7708 21.9724C43.0118 21.9724 43.2604 21.8481 43.5557 21.6075L43.921 19.5502L43.6101 19.0844ZM47.0316 18.7117H47.3036L47.086 19.752C47.5834 19.0611 48.0496 18.7195 48.4149 18.7195C48.749 18.7195 48.99 18.9446 48.99 19.2862C48.99 19.6588 48.6946 19.9461 48.2361 19.9461H48.2206L48.0108 19.3561C47.3813 19.62 47.0938 20.047 46.9772 20.7379L46.6741 22.5391H45.7183L46.3399 19.3871L45.6949 19.294V19.03L47.0316 18.7117ZM52.9395 16.8252H53.2659L52.5432 21.1494C52.4965 21.4367 52.4732 21.623 52.4732 21.7161C52.4732 21.9568 52.6209 22.1121 52.7996 22.1121C52.955 22.1121 53.1338 22.081 53.3202 22.0267V22.3139C52.8307 22.4925 52.4343 22.5856 52.139 22.5856C51.7039 22.5856 51.5096 22.3916 51.5096 21.9646V21.9413C51.0666 22.3838 50.6469 22.6012 50.2506 22.6012C49.6133 22.6012 49.1471 22.0577 49.1471 21.1649C49.1471 20.6293 49.2947 20.1169 49.5745 19.6821C49.9864 19.0455 50.6392 18.6884 51.3852 18.6884C51.5795 18.6884 51.7971 18.735 52.0225 18.8204L52.24 17.4929L51.5873 17.3919V17.128L52.9395 16.8252ZM51.5717 19.0533C51.5173 19.0455 51.4629 19.0378 51.4163 19.0378C50.7946 19.0378 50.1263 19.9073 50.1263 21.0718C50.1263 21.654 50.3594 21.9801 50.7169 21.9801C50.9578 21.9801 51.2531 21.8326 51.564 21.5454L51.8981 19.5191L51.5717 19.0533ZM54.5803 18.704H54.9377L55.093 21.5376C55.5823 20.637 56.0408 19.7598 56.4376 18.8825L57.1679 18.8204C57.1987 19.5346 57.2535 20.5206 57.3386 21.8015C57.8907 21.0718 58.2556 20.4973 58.4348 20.0781L58.2481 18.9136C58.3801 18.7738 58.5433 18.7117 58.73 18.7117C59.0332 18.7117 59.2348 18.9291 59.2348 19.2551C59.2348 19.8917 58.5125 20.9243 57.2221 22.5391H56.5541L56.3983 19.8607C55.9244 20.7768 55.4425 21.6695 54.9452 22.5391H54.2149L54.2846 22.2984L54.1138 19.3483L53.4687 19.2551V18.999L54.5803 18.704ZM61.5453 18.7117C62.5165 18.7117 63.1229 19.3328 63.1229 20.311C63.1229 20.9398 62.8819 21.5531 62.4468 22.0034C62.058 22.4071 61.5293 22.6245 60.9544 22.6245C59.9832 22.6245 59.3768 21.9956 59.3768 21.0097C59.3768 20.4042 59.6257 19.7831 60.0528 19.3406C60.4416 18.9369 60.9778 18.7117 61.5453 18.7117ZM61.4442 19.1154C60.8847 19.1154 60.3794 19.9151 60.3794 21.1339C60.3794 21.8481 60.6124 22.2208 61.04 22.2208C61.615 22.2208 62.1203 21.4134 62.1203 20.2256C62.1203 19.4803 61.8947 19.1154 61.4442 19.1154ZM65.8179 18.7117C66.7891 18.7117 67.3955 19.3328 67.3955 20.311C67.3955 20.9398 67.1545 21.5531 66.7195 22.0034C66.3306 22.4071 65.8025 22.6245 65.227 22.6245C64.2558 22.6245 63.6494 21.9956 63.6494 21.0097C63.6494 20.4042 63.8983 19.7831 64.326 19.3406C64.7143 18.9369 65.2504 18.7117 65.8179 18.7117ZM65.7169 19.1154C65.1573 19.1154 64.652 19.9151 64.652 21.1339C64.652 21.8481 64.8855 22.2208 65.3126 22.2208C65.8876 22.2208 66.3929 21.4134 66.3929 20.2256C66.3929 19.4803 66.1674 19.1154 65.7169 19.1154ZM71.7303 16.8252H72.0569L71.3341 21.1494C71.2873 21.4367 71.2639 21.623 71.2639 21.7161C71.2639 21.9568 71.4117 22.1121 71.5904 22.1121C71.7457 22.1121 71.9245 22.081 72.1112 22.0267V22.3139C71.6213 22.4925 71.225 22.5856 70.9298 22.5856C70.4948 22.5856 70.3001 22.3916 70.3001 21.9646V21.9413C69.8576 22.3838 69.4379 22.6012 69.0417 22.6012C68.4039 22.6012 67.938 22.0577 67.938 21.1649C67.938 20.6293 68.0853 20.1169 68.3651 19.6821C68.7773 19.0455 69.4299 18.6884 70.1762 18.6884C70.3703 18.6884 70.5878 18.735 70.8134 18.8204L71.0309 17.4929L70.3783 17.3919V17.128L71.7303 16.8252ZM70.3623 19.0533C70.3081 19.0455 70.2538 19.0378 70.207 19.0378C69.5852 19.0378 68.9172 19.9073 68.9172 21.0718C68.9172 21.654 69.1502 21.9801 69.5076 21.9801C69.7485 21.9801 70.0437 21.8326 70.3549 21.5454L70.6889 19.5191L70.3623 19.0533ZM78.8496 16.8252H79.1836C79.1294 17.0892 79.106 17.2444 79.098 17.2833L78.3751 21.0873C78.3209 21.3823 78.29 21.5919 78.29 21.7239C78.29 21.9956 78.414 22.1199 78.6703 22.1199C78.7714 22.1199 78.9581 22.081 79.2299 21.9956V22.2984C78.6629 22.5235 78.2507 22.609 78.0411 22.609C77.5672 22.609 77.3417 22.3838 77.3417 21.9102C77.3417 21.7239 77.3885 21.4755 77.4507 21.1494L78.1576 17.4929L77.8624 17.4696L77.5124 17.8422L76.8832 17.2134C76.6577 17.4851 76.4481 18.0596 76.2928 18.9136H77.2874V19.3638H76.238L75.9508 21.3979C75.8498 22.0965 75.6865 22.6555 75.3913 23.1213C74.9482 23.82 74.3653 24.2004 73.8914 24.2004C73.5802 24.2004 73.3552 23.9908 73.3552 23.7191C73.3552 23.5017 73.4637 23.3232 73.6659 23.23L74.4972 23.6725C74.7541 23.3154 74.8706 22.6711 75.0025 21.7472L75.3445 19.3716L74.8317 19.4337V19.0921L75.4376 18.8281C75.6551 17.5938 76.4556 16.8485 77.2949 16.8485C77.5826 16.8485 77.7848 16.9262 77.9167 17.0814L78.8496 16.8252ZM81.6792 18.7117C82.6504 18.7117 83.2568 19.3328 83.2568 20.311C83.2568 20.9398 83.0158 21.5531 82.5807 22.0034C82.1919 22.4071 81.6638 22.6245 81.0888 22.6245C80.1171 22.6245 79.5112 21.9956 79.5112 21.0097C79.5112 20.4042 79.7596 19.7831 80.1873 19.3406C80.5755 18.9369 81.1117 18.7117 81.6792 18.7117ZM81.5781 19.1154C81.0186 19.1154 80.5133 19.9151 80.5133 21.1339C80.5133 21.8481 80.7468 22.2208 81.1739 22.2208C81.7489 22.2208 82.2542 21.4134 82.2542 20.2256C82.2542 19.4803 82.0286 19.1154 81.5781 19.1154ZM85.9518 18.7117C86.923 18.7117 87.5294 19.3328 87.5294 20.311C87.5294 20.9398 87.2884 21.5531 86.8534 22.0034C86.4646 22.4071 85.9364 22.6245 85.3614 22.6245C84.3897 22.6245 83.7839 21.9956 83.7839 21.0097C83.7839 20.4042 84.0323 19.7831 84.4599 19.3406C84.8482 18.9369 85.3848 18.7117 85.9518 18.7117ZM85.8508 19.1154C85.2912 19.1154 84.7859 19.9151 84.7859 21.1339C84.7859 21.8481 85.0194 22.2208 85.4465 22.2208C86.022 22.2208 86.5268 21.4134 86.5268 20.2256C86.5268 19.4803 86.3018 19.1154 85.8508 19.1154ZM89.4474 18.7117H89.7197L89.5016 19.752C89.9995 19.0611 90.4654 18.7195 90.8308 18.7195C91.1648 18.7195 91.4058 18.9446 91.4058 19.2862C91.4058 19.6588 91.1106 19.9461 90.6521 19.9461H90.6367L90.4266 19.3561C89.7973 19.62 89.5096 20.047 89.3931 20.7379L89.0899 22.5391H88.1341L88.7559 19.3871L88.1107 19.294V19.03L89.4474 18.7117ZM92.0217 19.4725L91.8972 19.2396C92.4876 18.9136 92.8062 18.5099 92.8296 18.0518H92.3631C92.3089 17.9664 92.278 17.8733 92.278 17.7724C92.278 17.4074 92.5498 17.1202 92.9152 17.1202C93.2647 17.1202 93.4822 17.3531 93.4822 17.7335C93.4822 18.3701 92.9695 19.0921 92.0217 19.4725ZM94.2343 21.4988L94.0944 22.0655C94.2731 22.1897 94.4439 22.2518 94.6151 22.2518C94.9571 22.2518 95.1981 22.0111 95.1981 21.6929C95.1981 21.2969 94.9183 21.1494 94.5529 20.901C94.071 20.5672 93.8067 20.3343 93.8067 19.9538C93.8067 19.2629 94.4598 18.7117 95.3454 18.7117C95.9129 18.7117 96.2395 18.9446 96.2395 19.2862C96.2395 19.5579 96.0294 19.752 95.6874 19.7676L95.322 19.0688C95.2678 19.0611 95.2135 19.0533 95.1667 19.0533C94.8327 19.0533 94.5997 19.2551 94.5997 19.4958C94.5997 19.7287 94.8327 19.9151 95.2215 20.1945C95.7262 20.5594 96.0448 20.8001 96.0448 21.328C96.0448 22.0267 95.4002 22.609 94.5141 22.609C93.7992 22.609 93.3328 22.2518 93.3328 21.8015C93.3328 21.5143 93.5269 21.3202 93.7992 21.3202C93.97 21.3202 94.1098 21.3823 94.2343 21.4988Z" fill="#1E1E1E"/>
<path fill-rule="evenodd" clip-rule="evenodd" d="M0.566406 2.48221H31.4638V1.03027C21.1614 1.03027 10.8622 1.03027 0.566406 1.03027V2.48221Z" fill="#1E1E1E"/>
<path fill-rule="evenodd" clip-rule="evenodd" d="M0.566406 5.57072C10.8688 5.57072 21.1679 5.57072 31.4638 5.57072V4.12866C21.1614 4.12866 10.8622 4.12866 0.566406 4.12866V5.57072Z" fill="#1E1E1E"/>
<path fill-rule="evenodd" clip-rule="evenodd" d="M0.566406 8.72691C10.8688 8.72691 21.1679 8.72691 31.4638 8.72691V7.26514C21.1614 7.26514 10.8622 7.26514 0.566406 7.26514V8.72691Z" fill="#1E1E1E"/>
<path fill-rule="evenodd" clip-rule="evenodd" d="M99.9911 0.992432V2.48386H130.879V1.03193C120.589 1.01876 110.293 1.0056 99.9911 0.992432Z" fill="#1E1E1E"/>
<path fill-rule="evenodd" clip-rule="evenodd" d="M99.9911 5.57072C110.28 5.57072 120.576 5.57072 130.879 5.57072V4.12866C120.589 4.12866 110.293 4.12866 99.9911 4.12866V5.57072Z" fill="#1E1E1E"/>
<path fill-rule="evenodd" clip-rule="evenodd" d="M99.9911 8.72691C110.28 8.72691 120.576 8.72691 130.879 8.72691V7.26514C120.589 7.26514 110.293 7.26514 99.9911 7.26514V8.72691Z" fill="#1E1E1E"/>
<path fill-rule="evenodd" clip-rule="evenodd" d="M64.5843 4.14155C64.5248 4.14155 64.4258 4.14155 64.4258 4.14155C54.7232 4.14155 45.0241 4.14155 35.328 4.14155V2.48221H64.4258V1.03027C54.1105 1.03027 43.8047 1.03027 33.5088 1.03027V2.48221V4.17119V5.61324C43.3301 5.61324 53.148 5.61324 62.9626 5.61324V7.30221C53.1349 7.30221 43.3169 7.30221 33.5088 7.30221V8.76403C43.8211 8.76403 64.5248 8.76403 64.5843 8.76403V4.14155Z" fill="#1E1E1E"/>
<path fill-rule="evenodd" clip-rule="evenodd" d="M97.7088 4.18106V4.13168C88.0094 4.13168 78.2706 4.13168 68.5611 4.13168V2.48221H97.7088V1.03027C87.3999 1.03027 77.0808 1.03027 66.7522 1.03027V2.48221V4.17119V5.61324C76.5734 5.61324 86.3877 5.61324 96.1962 5.61324C96.1962 6.19599 96.1962 6.72937 96.1962 7.30221C86.368 7.30221 76.55 7.30221 66.7421 7.30221V8.76403C77.0579 8.76403 87.3765 8.76403 97.6987 8.76403L97.7088 4.18106Z" fill="#1E1E1E"/>
</g>
<defs>
<clipPath id="clip0_2007_9">
<rect width="130.217" height="23.9104" fill="white" transform="translate(0.566406 0.981689)"/>
</clipPath>
</defs>
</svg>
