<svg width="154" height="16" viewBox="0 0 154 16" fill="none" xmlns="http://www.w3.org/2000/svg">
<path d="M72.9561 15.1934H74.371C74.4485 15.1934 74.5117 15.1303 74.5117 15.0529V1.30745C74.5117 1.23006 74.4485 1.16699 74.371 1.16699H73.0964C73.0417 1.16699 72.992 1.19875 72.9687 1.2484L70.2214 7.1583C70.1837 7.23971 70.0681 7.23971 70.03 7.1583L67.2648 1.24796C67.2415 1.1983 67.1917 1.16699 67.137 1.16699H65.862C65.7845 1.16699 65.7213 1.23006 65.7213 1.30745V15.0529C65.7213 15.1303 65.7845 15.1934 65.862 15.1934H67.2778C67.3553 15.1934 67.4186 15.1303 67.4186 15.0529V6.00692C67.4186 5.89375 67.5732 5.8602 67.6203 5.96353L69.4328 9.9473C69.4557 9.9974 69.5059 10.0296 69.561 10.0296H70.6706C70.7257 10.0296 70.7755 9.99785 70.7984 9.94775L72.6136 6.01273C72.6611 5.90985 72.8149 5.94385 72.8149 6.05657V15.0529C72.8149 15.1303 72.8781 15.1934 72.9557 15.1934H72.9561Z" fill="#1E1E1E"/>
<path d="M28.9535 6.00807C29.0311 6.00807 29.0943 5.945 29.0943 5.86762V5.16176C29.0943 3.9397 28.8204 2.96992 28.2797 2.28016C28.0798 2.03101 27.7807 1.78365 27.3907 1.54523C27.0043 1.3086 26.464 1.18872 25.7858 1.18872C25.1075 1.18872 24.5632 1.3086 24.1705 1.54568C23.7728 1.78499 23.4707 2.03235 23.2716 2.28106C22.744 2.95784 22.4763 3.92717 22.4763 5.1622V11.2228C22.4763 12.4579 22.744 13.4272 23.2721 14.1044C23.3729 14.2301 23.4971 14.3603 23.6406 14.4909C23.7823 14.6211 23.9593 14.741 24.1669 14.8474C24.3722 14.9534 24.6112 15.0425 24.8761 15.1113C25.1393 15.1802 25.445 15.2156 25.7853 15.2156C26.4632 15.2156 27.0029 15.0926 27.3898 14.8501C27.7794 14.6059 28.0789 14.3549 28.2793 14.1044C28.8195 13.4147 29.0938 12.4454 29.0938 11.2233V10.5174C29.0938 10.4401 29.0306 10.377 28.9531 10.377H27.5189C27.4414 10.377 27.3782 10.4401 27.3782 10.5174V11.2233C27.3782 12.0499 27.232 12.6672 26.9442 13.0591L26.9424 13.0613C26.8608 13.1561 26.7366 13.2568 26.5734 13.3606C26.4053 13.4679 26.1399 13.5225 25.7849 13.5225C25.4298 13.5225 25.1608 13.4679 24.9873 13.361C24.8165 13.2568 24.6946 13.1552 24.6251 13.0591C24.3256 12.682 24.1732 12.0642 24.1732 11.2237V5.1631C24.1732 4.60977 24.2292 4.1714 24.3391 3.85963C24.4507 3.54517 24.5955 3.31435 24.7699 3.17345C24.9429 3.03389 25.1231 2.94935 25.3065 2.92206C25.48 2.89611 25.6409 2.88314 25.7853 2.88314C25.9167 2.88314 26.074 2.89611 26.2542 2.92206C26.4434 2.94935 26.6245 3.03389 26.7918 3.17434C26.9581 3.31435 27.0993 3.54472 27.2114 3.85963C27.3221 4.17275 27.3782 4.61111 27.3782 5.1631V5.86896C27.3782 5.94634 27.4414 6.00941 27.5189 6.00941H28.9531L28.9535 6.00807Z" fill="#1E1E1E"/>
<path d="M36.6371 14.1617C37.1782 13.5337 37.4522 12.5706 37.4522 11.2993C37.4522 10.0281 37.1782 9.07172 36.6376 8.41909C36.6376 8.41909 36.5851 8.35602 36.5282 8.28713C36.4829 8.23301 36.4852 8.15428 36.5327 8.10239C36.5945 8.03485 36.6367 7.98654 36.6367 7.98654C37.1778 7.33346 37.4522 6.36369 37.4522 5.1045C37.4522 3.84531 37.1782 2.87107 36.6385 2.24393L36.6376 2.24259C36.0871 1.54299 35.2093 1.18872 34.028 1.18872H31.4941C31.4165 1.18872 31.3533 1.25179 31.3533 1.32918V15.0747C31.3533 15.152 31.4165 15.2151 31.4941 15.2151H34.028C35.1967 15.2151 36.0749 14.8608 36.6371 14.1621V14.1617ZM33.0502 3.02226C33.0502 2.94487 33.1134 2.8818 33.191 2.8818H34.028C34.2602 2.8818 34.4839 2.90148 34.6919 2.9404C34.9062 2.98066 35.0936 3.07907 35.2492 3.23384C35.402 3.38637 35.5231 3.61405 35.6087 3.90973C35.6934 4.20093 35.736 4.60261 35.736 5.1045C35.736 5.97005 35.5962 6.57482 35.3204 6.90315C35.2501 6.99977 35.125 7.09549 34.938 7.19524C34.7511 7.29499 34.4449 7.34599 34.028 7.34599H33.191C33.1134 7.34599 33.0502 7.28291 33.0502 7.20553V3.02226ZM33.0502 9.17908C33.0502 9.10169 33.1134 9.03862 33.191 9.03862H34.028C34.2606 9.03862 34.4808 9.0583 34.682 9.09722C34.891 9.13837 35.0752 9.23678 35.2299 9.39065C35.3828 9.54408 35.5069 9.77445 35.5993 10.0755C35.6903 10.3743 35.736 10.7858 35.736 11.2993C35.736 11.8129 35.693 12.2029 35.6087 12.4946C35.5231 12.7898 35.402 13.017 35.2492 13.1705C35.094 13.3243 34.9066 13.4227 34.6919 13.463C34.4839 13.5019 34.2606 13.5216 34.028 13.5216H33.191C33.1134 13.5216 33.0502 13.4585 33.0502 13.3811V9.17908Z" fill="#1E1E1E"/>
<path d="M45.5126 2.74134V1.32918C45.5126 1.25179 45.4494 1.18872 45.3719 1.18872H39.9007C39.8231 1.18872 39.7599 1.25179 39.7599 1.32918V15.0747C39.7599 15.152 39.8231 15.2151 39.9007 15.2151H45.3719C45.4494 15.2151 45.5126 15.152 45.5126 15.0747V13.6625C45.5126 13.5851 45.4494 13.522 45.3719 13.522H41.5975C41.52 13.522 41.4567 13.459 41.4567 13.3816V9.17952C41.4567 9.10214 41.52 9.03907 41.5975 9.03907H45.3719C45.4494 9.03907 45.5126 8.976 45.5126 8.89861V7.48689C45.5126 7.4095 45.4494 7.34643 45.3719 7.34643H41.5975C41.52 7.34643 41.4567 7.28336 41.4567 7.20598V3.0227C41.4567 2.94532 41.52 2.88225 41.5975 2.88225H45.3719C45.4494 2.88225 45.5126 2.81918 45.5126 2.74179V2.74134Z" fill="#1E1E1E"/>
<path d="M55.3788 1.16699H47.7544C47.6768 1.16699 47.6136 1.23006 47.6136 1.30745V2.73885C47.6136 2.81624 47.6768 2.87931 47.7544 2.87931H50.5675C50.6451 2.87931 50.7083 2.94238 50.7083 3.01976V15.0529C50.7083 15.1303 50.7715 15.1934 50.8491 15.1934H52.2836C52.3612 15.1934 52.4244 15.1303 52.4244 15.0529V3.01976C52.4244 2.94238 52.4876 2.87931 52.5652 2.87931H55.3783C55.4559 2.87931 55.5191 2.81624 55.5191 2.73885V1.30745C55.5191 1.23006 55.4559 1.16699 55.3783 1.16699H55.3788Z" fill="#1E1E1E"/>
<path d="M59.1722 1.27166C58.9099 1.3401 58.6714 1.42867 58.4629 1.53558C58.2549 1.64293 58.0774 1.75968 57.9353 1.88314C57.7927 2.00705 57.669 2.13364 57.5672 2.25978C57.0396 2.93612 56.7719 3.90589 56.7719 5.14092V11.2208C56.7719 12.4558 57.0396 13.4252 57.5677 14.1024C57.7663 14.3511 58.0716 14.598 58.475 14.8369C58.8745 15.074 59.4147 15.1938 60.0813 15.1938C60.748 15.1938 61.3034 15.074 61.6957 14.8369C62.0916 14.5994 62.3942 14.3515 62.5946 14.1015C63.1222 13.4247 63.3899 12.4554 63.3899 11.2204V5.14047C63.3899 3.90544 63.1222 2.93567 62.5941 2.25888C62.3942 2.00973 62.092 1.76237 61.6962 1.52395C61.3034 1.28732 60.7601 1.16699 60.0813 1.16699C59.7433 1.16699 59.4376 1.20188 59.1722 1.27077V1.27166ZM61.0963 3.17051C61.2698 3.31052 61.4146 3.53775 61.5267 3.84685C61.6374 4.15281 61.6935 4.58804 61.6935 5.14092V11.2208C61.6935 11.7862 61.6374 12.2282 61.5267 12.5346C61.4146 12.8423 61.2698 13.07 61.0963 13.2109C60.9219 13.3514 60.7381 13.4354 60.5498 13.4618C60.3701 13.4878 60.2123 13.5008 60.0813 13.5008C59.937 13.5008 59.776 13.4878 59.6026 13.4618C59.421 13.4359 59.2403 13.3514 59.0659 13.2109C58.8911 13.0691 58.7463 12.8419 58.6355 12.5346C58.5253 12.229 58.4692 11.7871 58.4692 11.2208V5.14092C58.4692 4.58715 58.5253 4.15191 58.6355 3.84685C58.7467 3.53865 58.8915 3.31096 59.0659 3.17051C59.239 3.03095 59.4196 2.9464 59.6026 2.91912C59.776 2.89317 59.937 2.8802 60.0813 2.8802C60.2123 2.8802 60.3701 2.89317 60.5503 2.91912C60.7395 2.9464 60.9233 3.03095 61.0963 3.17051Z" fill="#1E1E1E"/>
<path d="M81.6512 11.3727L82.5056 15.106C82.5204 15.1699 82.5774 15.2151 82.6428 15.2151H84.1231C84.2137 15.2151 84.2809 15.131 84.2603 15.0429L81.0459 1.29742C81.0311 1.2339 80.9742 1.18872 80.9087 1.18872H79.7781C79.7127 1.18872 79.6557 1.2339 79.6409 1.29742L76.4628 15.0429C76.4427 15.131 76.5095 15.2151 76.6 15.2151H78.0624C78.1283 15.2151 78.1853 15.1699 78.1996 15.106L79.0527 11.3727C79.0675 11.3087 79.1245 11.2636 79.1899 11.2636H81.5131C81.5785 11.2636 81.6359 11.3087 81.6503 11.3727H81.6512ZM80.456 5.75624L81.1871 9.40273C81.2046 9.48951 81.1378 9.57092 81.0491 9.57092H79.6557C79.567 9.57092 79.5002 9.48996 79.5176 9.40273L80.2488 5.75624C80.2717 5.64351 80.4331 5.64351 80.456 5.75624Z" fill="#1E1E1E"/>
<path d="M142.488 11.3727L143.342 15.106C143.357 15.1699 143.414 15.2151 143.48 15.2151H144.96C145.05 15.2151 145.118 15.131 145.097 15.0429L141.883 1.29742C141.868 1.2339 141.811 1.18872 141.746 1.18872H140.615C140.549 1.18872 140.493 1.2339 140.478 1.29742L137.3 15.0429C137.279 15.131 137.346 15.2151 137.437 15.2151H138.899C138.965 15.2151 139.022 15.1699 139.036 15.106L139.89 11.3727C139.904 11.3087 139.961 11.2636 140.027 11.2636H142.35C142.415 11.2636 142.473 11.3087 142.487 11.3727H142.488ZM141.293 5.75624L142.024 9.40273C142.041 9.48951 141.975 9.57092 141.886 9.57092H140.493C140.404 9.57092 140.337 9.48996 140.354 9.40273L141.086 5.75624C141.108 5.64351 141.27 5.64351 141.293 5.75624Z" fill="#1E1E1E"/>
<path d="M91.4341 14.1031C91.9743 13.4138 92.2487 12.444 92.2487 11.222V10.3756H90.533V11.222C90.533 12.0481 90.3868 12.6659 90.099 13.0577L90.0972 13.06C90.0152 13.1552 89.891 13.2559 89.7283 13.3592C89.5602 13.4666 89.2948 13.5211 88.9397 13.5211C88.5846 13.5211 88.3161 13.4666 88.1422 13.3597C87.9714 13.2554 87.8494 13.1539 87.7799 13.0577C87.4804 12.6811 87.3276 12.0629 87.3276 11.2224V5.16176C87.3276 4.60843 87.3836 4.16962 87.4939 3.85829C87.6051 3.54382 87.7499 3.31301 87.9243 3.17211C88.0973 3.03255 88.278 2.94756 88.4609 2.92072C88.6344 2.89477 88.7953 2.8818 88.9397 2.8818C89.0706 2.8818 89.2284 2.89477 89.4086 2.92072C89.5983 2.948 89.7789 3.03255 89.9462 3.173C90.1125 3.31301 90.2537 3.54338 90.3662 3.85829C90.477 4.17096 90.533 4.60977 90.533 5.16176V6.00807H92.2487V5.16176C92.2487 3.9397 91.9748 2.96992 91.4341 2.28016C91.2337 2.03101 90.9347 1.78365 90.5455 1.54523C90.1591 1.3086 89.6189 1.18872 88.9406 1.18872C88.2623 1.18872 87.7181 1.3086 87.3253 1.54568C86.9281 1.78454 86.6255 2.03191 86.4265 2.28106C85.8988 2.95784 85.6312 3.92717 85.6312 5.1622V11.2228C85.6312 12.4579 85.8988 13.4277 86.4269 14.1044C86.5273 14.2297 86.6511 14.3599 86.7954 14.4909C86.9375 14.6211 87.1146 14.741 87.3217 14.8474C87.5275 14.9534 87.766 15.0425 88.031 15.1113C88.2937 15.1802 88.5999 15.2151 88.9401 15.2151C89.618 15.2151 90.1578 15.0921 90.5447 14.8497C90.9342 14.6054 91.2337 14.3545 91.4341 14.104V14.1031Z" fill="#1E1E1E"/>
<path d="M101.438 1.16699H93.8133C93.7358 1.16699 93.6725 1.23006 93.6725 1.30745V2.73885C93.6725 2.81624 93.7358 2.87931 93.8133 2.87931H96.6265C96.704 2.87931 96.7672 2.94238 96.7672 3.01976V15.0529C96.7672 15.1303 96.8305 15.1934 96.908 15.1934H98.3426C98.4202 15.1934 98.4834 15.1303 98.4834 15.0529V3.01976C98.4834 2.94238 98.5466 2.87931 98.6242 2.87931H101.437C101.515 2.87931 101.578 2.81624 101.578 2.73885V1.30745C101.578 1.23006 101.515 1.16699 101.437 1.16699H101.438Z" fill="#1E1E1E"/>
<path d="M109.111 2.74134V1.32918C109.111 1.25179 109.047 1.18872 108.97 1.18872H103.499C103.421 1.18872 103.358 1.25179 103.358 1.32918V15.0747C103.358 15.152 103.421 15.2151 103.499 15.2151H108.97C109.047 15.2151 109.111 15.152 109.111 15.0747V13.6625C109.111 13.5851 109.047 13.522 108.97 13.522H105.195C105.118 13.522 105.055 13.459 105.055 13.3816V9.17952C105.055 9.10214 105.118 9.03907 105.195 9.03907H108.97C109.047 9.03907 109.111 8.976 109.111 8.89861V7.48689C109.111 7.4095 109.047 7.34643 108.97 7.34643H105.195C105.118 7.34643 105.055 7.28336 105.055 7.20598V3.0227C105.055 2.94532 105.118 2.88225 105.195 2.88225H108.97C109.047 2.88225 109.111 2.81918 109.111 2.74179V2.74134Z" fill="#1E1E1E"/>
<path d="M116.922 7.98136C117.487 7.33007 117.774 6.35493 117.774 5.08277C117.774 3.81061 117.487 2.86723 116.922 2.20297C116.308 1.5159 115.397 1.16699 114.215 1.16699H111.47C111.392 1.16699 111.329 1.23006 111.329 1.30745V15.0529C111.329 15.1303 111.392 15.1934 111.47 15.1934H112.885C112.963 15.1934 113.026 15.1303 113.026 15.0529V9.17658C113.026 9.09919 113.089 9.03612 113.167 9.03612H114.215C115.41 9.03612 116.321 8.6814 116.923 7.98181L116.922 7.98136ZM113.026 3.01976C113.026 2.94238 113.089 2.87931 113.167 2.87931H114.215C114.511 2.87931 114.777 2.9057 115.006 2.95759C115.24 3.01082 115.436 3.11907 115.59 3.27965C115.743 3.43934 115.861 3.66658 115.94 3.95554C116.018 4.23959 116.058 4.61891 116.058 5.08277C116.058 5.96085 115.911 6.56069 115.62 6.86487C115.565 6.93241 115.448 7.02366 115.264 7.1431C115.073 7.26521 114.729 7.32426 114.215 7.32426H113.167C113.089 7.32426 113.026 7.26119 113.026 7.1838V3.01976Z" fill="#1E1E1E"/>
<path d="M126.129 6.00807C126.206 6.00807 126.269 5.945 126.269 5.86762V5.16176C126.269 3.9397 125.996 2.96992 125.455 2.28016C125.254 2.03056 124.955 1.7832 124.566 1.54523C124.179 1.3086 123.639 1.18872 122.961 1.18872C122.283 1.18872 121.738 1.3086 121.346 1.54568C120.948 1.78454 120.646 2.03191 120.447 2.28106C119.919 2.95784 119.651 3.92717 119.651 5.1622V11.2228C119.651 12.4579 119.919 13.4272 120.447 14.1044C120.548 14.2297 120.671 14.3599 120.816 14.4909C120.958 14.6211 121.135 14.741 121.342 14.8474C121.547 14.9534 121.786 15.0425 122.051 15.1113C122.314 15.1802 122.62 15.2151 122.96 15.2151C123.638 15.2151 124.178 15.0921 124.565 14.8497C124.955 14.6054 125.254 14.3545 125.454 14.104C125.995 13.4147 126.269 12.4449 126.269 11.2228V10.517C126.269 10.4396 126.206 10.3765 126.128 10.3765H124.694C124.617 10.3765 124.553 10.4396 124.553 10.517V11.2228C124.553 12.0495 124.407 12.6668 124.119 13.0586L124.118 13.0609C124.036 13.1557 123.912 13.2563 123.749 13.3601C123.58 13.4675 123.315 13.522 122.96 13.522C122.605 13.522 122.336 13.4675 122.162 13.3606C121.991 13.2563 121.869 13.1548 121.8 13.0586C121.5 12.6815 121.348 12.0638 121.348 11.2233V5.16265C121.348 4.60932 121.404 4.17096 121.514 3.85918C121.625 3.54472 121.77 3.31391 121.944 3.173C122.117 3.03344 122.298 2.94845 122.481 2.92161C122.654 2.89567 122.815 2.8827 122.96 2.8827C123.09 2.8827 123.248 2.89567 123.429 2.92161C123.618 2.9489 123.799 3.03344 123.966 3.1739C124.132 3.31391 124.274 3.54427 124.386 3.85918C124.496 4.1723 124.552 4.61067 124.552 5.16265V5.86851C124.552 5.9459 124.616 6.00897 124.693 6.00897H126.127L126.129 6.00807Z" fill="#1E1E1E"/>
<path d="M129.888 7.11894V1.3079C129.888 1.23051 129.824 1.16744 129.747 1.16744H128.331C128.254 1.16744 128.191 1.23051 128.191 1.3079V15.0534C128.191 15.1308 128.254 15.1938 128.331 15.1938H129.747C129.824 15.1938 129.888 15.1308 129.888 15.0534V10.7337C129.888 10.6532 129.91 10.5744 129.954 10.5069L130.569 9.5474C130.626 9.45794 130.758 9.46197 130.81 9.55456L133.893 15.0851C133.93 15.1518 134.001 15.1934 134.078 15.1934H135.665C135.773 15.1934 135.841 15.0784 135.789 14.9849L131.803 7.80065C131.778 7.75502 131.779 7.69955 131.808 7.65616L135.889 1.38394C135.95 1.29045 135.883 1.16699 135.771 1.16699H134.143C134.047 1.16699 133.958 1.2153 133.906 1.29492L130.081 7.17575C130.024 7.26387 129.887 7.22316 129.887 7.11849L129.888 7.11894Z" fill="#1E1E1E"/>
<path d="M153.311 15.052V1.30745C153.311 1.23006 153.247 1.16699 153.17 1.16699H150.425C149.23 1.16699 148.319 1.52216 147.717 2.2222C147.165 2.86186 146.885 3.84327 146.885 5.14003C146.885 6.43679 147.165 7.41327 147.718 8.07753C147.736 8.099 147.784 8.15089 147.843 8.21038C147.897 8.26496 147.897 8.35308 147.843 8.40765C147.826 8.4242 147.814 8.43717 147.809 8.44164C147.516 8.74805 147.285 9.10859 147.122 9.5143C146.939 9.96564 146.847 10.4877 146.847 11.0665V15.0525C146.847 15.1299 146.91 15.1929 146.988 15.1929H148.421C148.499 15.1929 148.562 15.1299 148.562 15.0525V11.0665C148.562 9.79566 149.189 9.15153 150.425 9.15153H151.473C151.55 9.15153 151.614 9.2146 151.614 9.29199V15.0525C151.614 15.1299 151.677 15.1929 151.754 15.1929H153.17C153.247 15.1929 153.311 15.1299 153.311 15.0525V15.052ZM150.425 7.43877C149.93 7.43877 149.581 7.37793 149.386 7.25805C149.197 7.14086 149.073 7.04603 149.017 6.97714C148.728 6.6099 148.582 5.99216 148.582 5.14003C148.582 4.66319 148.621 4.27448 148.7 3.98462C148.778 3.68984 148.896 3.45634 149.048 3.29039C149.203 3.12264 149.399 3.01082 149.634 2.95759C149.861 2.9057 150.128 2.87931 150.425 2.87931H151.473C151.55 2.87931 151.614 2.94238 151.614 3.01976V7.29831C151.614 7.3757 151.55 7.43877 151.473 7.43877H150.425Z" fill="#1E1E1E"/>
<path d="M9.11127 13.5583H3.51769C3.39754 13.5583 3.33254 13.4178 3.41054 13.3265L6.529 9.6805C6.93068 9.20903 7.29247 8.76977 7.60405 8.37524C7.92683 7.9664 8.20478 7.56784 8.42984 7.1912C8.66699 6.79354 8.84677 6.39051 8.96422 5.99375C9.08348 5.58893 9.144 5.15324 9.144 4.69922C9.144 4.18302 9.04447 3.69053 8.84766 3.23517C8.6522 2.78249 8.37694 2.38125 8.02905 2.04308C7.67892 1.70222 7.25661 1.43518 6.77377 1.2491C6.29812 1.0657 5.77359 0.972656 5.2141 0.972656C4.29013 0.972656 3.46255 1.21913 2.75421 1.7058C2.03109 2.20232 1.52719 2.914 1.25641 3.82159L1.12236 4.27204C1.10039 4.34629 1.14253 4.42457 1.21695 4.44649L2.54037 4.84102C2.61479 4.86339 2.69324 4.82089 2.71566 4.74664L2.84701 4.30827C3.02096 3.73079 3.3164 3.29511 3.72481 3.0133C4.14667 2.72254 4.64788 2.57493 5.21455 2.57493C5.54809 2.57493 5.86146 2.62816 6.14524 2.73373C6.41782 2.83527 6.65497 2.98243 6.84954 3.17165C7.045 3.36176 7.20102 3.59615 7.31265 3.86856C7.42607 4.14634 7.48345 4.46975 7.48345 4.83028C7.48345 5.35722 7.31489 5.89399 6.98269 6.42674C6.60431 7.03285 6.08203 7.72306 5.42929 8.47902L0.932277 13.747C0.856512 13.836 0.814819 13.9488 0.814819 14.066V15.0755C0.814819 15.1529 0.878031 15.216 0.955589 15.216H9.11172C9.18928 15.216 9.25249 15.1529 9.25249 15.0755V13.6996C9.25249 13.6222 9.18928 13.5592 9.11172 13.5592L9.11127 13.5583Z" fill="#1E1E1E"/>
<path d="M12.8425 7.60722L19.6963 1.43385C19.7917 1.34752 19.7308 1.18917 19.6021 1.18917H17.6399C17.552 1.18917 17.4673 1.22182 17.4027 1.28087L12.105 6.10648C12.0373 6.16821 11.9284 6.12035 11.9284 6.02865V1.32918C11.9284 1.25179 11.8652 1.18872 11.7876 1.18872H10.4086C10.331 1.18872 10.2678 1.25179 10.2678 1.32918V15.0747C10.2678 15.152 10.331 15.2151 10.4086 15.2151H11.7876C11.8652 15.2151 11.9284 15.152 11.9284 15.0747V9.49219C11.9284 9.39781 12.0431 9.35129 12.109 9.41839L17.7035 15.0894C17.7829 15.1699 17.8914 15.2151 18.0043 15.2151H19.8258C19.9509 15.2151 20.0137 15.0648 19.9258 14.9758L12.8371 7.8094C12.7806 7.75259 12.7833 7.66 12.8429 7.60632L12.8425 7.60722Z" fill="#1E1E1E"/>
</svg>
