<svg width="141" height="21" viewBox="0 0 141 21" fill="none" xmlns="http://www.w3.org/2000/svg">
<path d="M3.64195 1.06909H3.4625H1.12965H0.950199H0.860474V18.1565H12.435V20.0651H14.6781L15.3062 15.5206H13.5117V1.06909H13.422H13.2425H10.9097H10.7302H10.6405V15.5206H3.73167V1.06909H3.64195Z" fill="#1E1E1E"/>
<path d="M107.812 8.97563C108.889 8.24851 109.517 6.97605 109.517 5.52181C109.517 2.70421 107.453 0.977295 103.954 0.977295H96.6863V18.1555H103.775C108.081 18.1555 110.324 16.4286 110.324 13.1566C110.235 11.2479 109.427 9.70276 107.812 8.97563ZM99.5575 10.6117H103.057C104.133 10.6117 105.21 10.6117 106.018 10.9752C106.825 11.3388 107.274 11.975 107.274 13.0657C107.274 13.8837 107.094 14.5199 106.646 14.8835C105.928 15.6106 104.762 15.6106 103.416 15.6106H99.5575V10.6117ZM102.967 8.06673H99.5575V3.79489H103.146C105.21 3.79489 106.556 3.97667 106.556 5.97626C106.556 7.88495 104.941 8.06673 102.967 8.06673Z" fill="#1E1E1E"/>
<path d="M112.747 1.06909V18.1565H124.591V15.248H115.888V10.7943H123.963V7.88586H115.888V3.97758H124.591V1.06909H112.747Z" fill="#1E1E1E"/>
<path d="M127.281 1.06909V3.97758H132.485V18.1565H135.626V3.97758H140.83V1.06909H127.281Z" fill="#1E1E1E"/>
<path d="M87.1759 18.2473C82.6 18.2473 79.7288 14.9753 79.7288 9.70366C79.7288 7.43141 80.3568 5.34093 81.5233 3.7958C82.8691 1.97799 84.8431 1.06909 87.2657 1.06909C88.791 1.06909 90.406 1.52354 91.5725 2.34155C93.0081 3.34135 93.8156 4.79559 93.995 6.43161L94.0848 6.97696H91.1238L91.0341 6.5225C90.6752 4.79559 89.3293 3.70491 87.3554 3.70491C84.0356 3.70491 82.8691 6.70428 82.8691 9.43099C82.8691 12.9757 84.5739 15.1571 87.2657 15.1571C89.5088 15.1571 90.8547 13.7937 91.1238 11.2488L91.2136 10.7943H94.2642L94.1745 11.4306C93.8156 15.7024 91.2136 18.2473 87.1759 18.2473Z" fill="#1E1E1E"/>
<path d="M17.4606 1.06909V18.1565H29.3043V15.248H20.6009V10.7943H28.6762V7.88586H20.6009V3.97758H29.3043V1.06909H17.4606Z" fill="#1E1E1E"/>
<path d="M48.8641 1.06909V3.97758H54.0682V18.1565H57.2086V3.97758H62.4126V1.06909H48.8641Z" fill="#1E1E1E"/>
<path d="M71.4734 8.4312H68.1536V3.97758H72.0117C73.5371 3.97758 74.9726 4.25025 74.9726 6.15894C74.9726 8.34031 73.4473 8.4312 71.4734 8.4312ZM76.0494 10.0672C77.3952 9.24921 78.2028 7.70408 78.2028 6.06805C78.2028 2.79601 76.2288 1.06909 72.4604 1.06909H65.1029V18.1565H68.2433V11.2488H71.7426C72.1015 11.2488 72.4604 11.2488 72.8193 11.1579C74.524 11.067 75.6007 10.4308 76.0494 10.0672Z" fill="#1E1E1E"/>
<path d="M46.1713 1.06909V18.1565H43.0309V15.248V10.7943H35.1351V15.248V18.1565H31.9948V1.06909H35.1351V7.88586H43.0309V1.06909H46.1713Z" fill="#1E1E1E"/>
</svg>
