<svg width="49" height="37" viewBox="0 0 49 37" fill="none" xmlns="http://www.w3.org/2000/svg">
<g clip-path="url(#clip0_2007_20)">
<path fill-rule="evenodd" clip-rule="evenodd" d="M36.3277 36.3905L36.3145 36.377L34.2338 31.8009C36.3808 31.4082 38.4217 30.3658 40.0783 28.6734C40.4096 28.3349 40.7144 27.9829 40.9927 27.6174H32.3254L30.2447 23.0548H47.9902C47.5131 26.3853 46.0155 29.6076 43.4975 32.1664C41.4566 34.2785 38.965 35.6865 36.3277 36.3905ZM40.0915 12.7112C36.0229 8.5683 29.5688 8.32459 25.2219 11.98L23.1279 7.39041C29.3435 2.94968 37.9711 3.55892 43.5108 9.21814C44.7036 10.4367 45.6842 11.8176 46.4132 13.2798H40.5951C40.4361 13.0767 40.2638 12.8872 40.0915 12.7112Z" fill="#1E1E1E"/>
<path fill-rule="evenodd" clip-rule="evenodd" d="M0 36.972L16.4921 0.979492L32.957 36.972H27.1243L23.3445 28.2403H23.3581L16.5329 11.5517L11.815 23.3693H17.8245L19.7959 28.0465H9.77563L5.81917 36.972H0Z" fill="#1E1E1E"/>
</g>
<defs>
<clipPath id="clip0_2007_20">
<rect width="48.1337" height="35.8854" fill="white" transform="translate(0 0.979492)"/>
</clipPath>
</defs>
</svg>
