<svg width="152" height="20" viewBox="0 0 152 20" fill="none" xmlns="http://www.w3.org/2000/svg">
<g clip-path="url(#clip0_2007_143)">
<path d="M96.7302 6.81425C93.4309 6.81425 92.981 7.80204 92.981 9.32173V15.8564H91.2563V8.94181C91.2563 7.11819 92.3061 5.44653 95.4555 5.44653H99.5046C102.729 5.44653 103.704 7.0422 103.704 8.94181V15.8564H101.979V9.32173C101.979 7.80204 101.529 6.81425 98.2299 6.81425H96.7302Z" fill="#1E1E1E"/>
<path d="M119 1.2666H117.275V6.05361C116.45 5.5977 115.251 5.44573 113.601 5.44573H111.352C107.227 5.44573 105.953 6.5855 105.953 9.9288V11.7524C105.953 15.3237 108.127 16.0835 111.202 16.0835H113.601C116.675 16.0835 118.85 15.3237 118.85 11.7524V10.6127V1.2666H119ZM117.275 11.6764C117.275 13.652 116.675 14.6398 113.901 14.6398H111.127C108.352 14.6398 107.752 13.728 107.752 11.6764V9.62487C107.752 7.26935 108.952 6.81345 111.277 6.81345H113.751C116.076 6.81345 117.275 7.26935 117.275 9.62487V11.6764Z" fill="#1E1E1E"/>
<path d="M83.3834 5.37085H80.6839C77.6096 5.37085 76.4848 6.13069 76.4848 8.0303V8.56219H78.2095V8.18227C78.2095 7.34644 78.6594 6.81455 80.7589 6.81455H83.2334C85.8579 6.81455 86.9826 7.0425 86.9826 8.94211V9.62596H80.609C77.6096 9.62596 76.0349 9.9299 76.0349 12.2094V12.8933C76.0349 14.7929 76.7098 16.0086 79.2592 16.0086H85.4829C88.0324 16.0086 88.7073 14.8689 88.7073 12.8933V8.94211C88.7073 5.90274 86.6077 5.37085 83.3834 5.37085ZM87.0576 12.5893V12.8933C87.0576 14.033 86.6827 14.489 84.2832 14.489H80.459C78.1345 14.489 77.6846 14.033 77.6846 12.8933V12.5893C77.6846 11.2976 78.2844 10.9937 80.534 10.9937H86.9826L87.0576 12.5893Z" fill="#1E1E1E"/>
<path d="M53.0149 6.81425C49.7156 6.81425 49.2657 7.80204 49.2657 9.32173V15.8564H47.541V8.94181C47.541 7.11819 48.5908 5.44653 51.7401 5.44653H55.7893C59.0136 5.44653 59.9884 7.0422 59.9884 8.94181V15.8564H58.2638V9.32173C58.2638 7.80204 57.8139 6.81425 54.5146 6.81425H53.0149Z" fill="#1E1E1E"/>
<path d="M23.3952 5.36975H21.1457C19.496 5.36975 18.2963 5.5977 17.4715 5.97762V1.2666H15.7468V10.5367V11.6764C15.7468 15.2477 17.9214 16.0075 20.9957 16.0075H23.3952C26.4696 16.0075 28.6441 15.2477 28.6441 11.6764V9.85282C28.7941 6.5855 27.5194 5.36975 23.3952 5.36975ZM27.0695 11.6764C27.0695 13.652 26.4696 14.6398 23.6952 14.6398H20.9208C18.1463 14.6398 17.5465 13.728 17.5465 11.6764V9.62486C17.5465 7.26935 18.7462 6.81345 21.0707 6.81345H23.5452C25.8697 6.81345 27.0695 7.26935 27.0695 9.62486V11.6764Z" fill="#1E1E1E"/>
<path d="M72.9596 5.5979L68.5355 14.716L63.6615 5.5979H61.7119L67.7107 16.4636C66.8858 18.1353 66.286 18.2873 63.8115 18.2873V19.731C67.3357 19.655 68.0106 19.2751 69.1354 17.1475L74.8342 5.5979H72.9596Z" fill="#1E1E1E"/>
<path d="M0.150391 9.54998C0.150391 5.82675 2.69986 5.37085 5.09936 5.37085H7.87379C10.9481 5.37085 13.1227 6.13069 13.1227 9.85392V10.9937H1.87503V11.6016C1.87503 13.9571 2.9998 14.5649 5.99918 14.5649H8.32369C10.4982 14.5649 11.3231 14.261 11.473 12.7413H13.1977V12.9693C13.1977 15.3248 11.2481 16.0086 8.09874 16.0086H4.94939C2.69986 16.0086 0.150391 15.5527 0.150391 11.8295V9.54998ZM11.3981 8.94211C11.3981 7.87833 10.6482 6.81455 7.87379 6.81455H5.3993C2.69986 6.81455 2.025 7.27045 1.87503 9.62596H11.3981V8.94211Z" fill="#1E1E1E"/>
<path d="M31.343 9.54998C31.343 6.13069 33.7425 5.37085 36.9668 5.37085H39.4413C42.6657 5.37085 45.0652 6.13069 45.0652 9.54998V11.8295C45.0652 15.2488 42.6657 16.0086 39.4413 16.0086H36.9668C33.7425 16.0086 31.343 15.2488 31.343 11.8295V9.54998ZM43.2655 9.70195C43.2655 7.27045 41.8408 6.81455 39.8912 6.81455H36.442C34.4924 6.81455 33.0677 7.27045 33.0677 9.70195V11.7535C33.0677 14.185 34.4924 14.6409 36.442 14.6409H39.8912C41.9158 14.6409 43.2655 14.185 43.2655 11.7535V9.70195Z" fill="#1E1E1E"/>
<path d="M121.399 9.54998C121.399 5.82675 124.024 5.37085 126.498 5.37085H129.348C132.497 5.37085 133.772 6.66258 133.772 8.86612V9.17006H132.197V8.94211C132.197 7.19447 131.072 6.81455 129.348 6.81455H126.198C124.624 6.81455 123.049 7.0425 123.049 9.62596V11.7535C123.049 14.033 124.474 14.5649 126.498 14.5649H129.348C130.922 14.5649 132.272 14.109 132.272 12.4374V12.1334H133.847V12.3614C133.847 14.9449 132.572 15.9327 129.423 15.9327H125.599C124.099 15.9327 121.324 15.4767 121.324 11.7535L121.399 9.54998Z" fill="#1E1E1E"/>
<path d="M136.171 9.54998C136.171 6.13069 138.57 5.37085 141.795 5.37085H144.269C147.494 5.37085 149.893 6.13069 149.893 9.54998V11.8295C149.893 15.2488 147.494 16.0086 144.269 16.0086H141.795C138.57 16.0086 136.171 15.2488 136.171 11.8295V9.54998ZM148.093 9.70195C148.093 7.27045 146.669 6.81455 144.719 6.81455H141.27C139.245 6.81455 137.896 7.27045 137.896 9.70195V11.7535C137.896 14.185 139.32 14.6409 141.27 14.6409H144.719C146.744 14.6409 148.093 14.185 148.093 11.7535V9.70195Z" fill="#1E1E1E"/>
</g>
<defs>
<clipPath id="clip0_2007_143">
<rect width="151.171" height="18.8462" fill="white" transform="translate(0 0.963867)"/>
</clipPath>
</defs>
</svg>
