<svg width="164" height="35" viewBox="0 0 164 35" fill="none" xmlns="http://www.w3.org/2000/svg">
<g clip-path="url(#clip0_2007_154)">
<mask id="mask0_2007_154" style="mask-type:luminance" maskUnits="userSpaceOnUse" x="54" y="1" width="111" height="33">
<path d="M54.5308 33.3567H164.582V1.57399H54.5308V33.3567Z" fill="white"/>
</mask>
<g mask="url(#mask0_2007_154)">
<path d="M164.583 14.5616C164.613 10.2593 162.126 6.63503 157.938 6.63503C153.897 6.63503 151.23 10.2208 151.23 14.4038C151.23 18.6467 153.835 22.2408 157.938 22.2408C158.772 22.2408 159.565 22.0956 160.295 21.8311V20.358C159.632 20.6906 158.903 20.8743 158.116 20.8743C154.911 20.8743 152.486 18.3503 152.58 14.5616H164.583ZM163.24 13.2045H152.58C152.819 10.3841 155.152 7.98995 157.967 7.98995C160.81 7.98995 162.904 10.4512 163.24 13.2045ZM150.4 7.98995C150.654 7.98995 150.859 8.04274 151.075 8.13842V6.66803C150.927 6.64273 150.769 6.63118 150.605 6.63118C149.145 6.63118 148.154 7.53684 147.616 8.89946H147.553V6.95506H146.206V21.913H147.553V14.2724C147.553 12.0706 147.376 7.98995 150.4 7.98995ZM146.234 29.5223C146.001 29.3722 145.699 29.3167 145.252 29.3167H143.729V29.4866C144.207 29.5284 144.257 29.5471 144.257 30.0634V32.5066C144.257 33.0229 144.201 33.0598 143.698 33.0955V33.2654H145.312V33.0955C144.82 33.0598 144.765 33.0229 144.765 32.5066V31.5393H144.962C145.282 31.5393 145.386 31.613 145.491 31.7824C145.675 32.0804 145.896 32.4576 146.111 32.7557C146.387 33.151 146.645 33.2836 147.105 33.3083C147.179 33.3143 147.247 33.3143 147.321 33.3143L147.345 33.1565C147.209 33.1208 147.068 33.0537 146.902 32.8711C146.755 32.7128 146.626 32.555 146.405 32.2388C146.222 31.9655 145.964 31.558 145.859 31.359C146.313 31.1637 146.638 30.8415 146.638 30.3186C146.638 29.9546 146.479 29.6807 146.234 29.5223ZM146.068 30.4165C146.068 30.7447 145.97 30.9878 145.73 31.1698C145.576 31.2919 145.374 31.3403 145.06 31.3403H144.765V29.8446C144.765 29.6807 144.79 29.6076 144.833 29.5779C144.882 29.541 144.987 29.5168 145.165 29.5168C145.631 29.5168 146.068 29.7599 146.068 30.4165ZM132.135 14.5616H144.139C144.17 10.2593 141.682 6.63503 137.494 6.63503C133.453 6.63503 130.787 10.2208 130.787 14.4038C130.787 18.6467 133.392 22.2408 137.494 22.2408C138.329 22.2408 139.122 22.0956 139.851 21.8311V20.358C139.189 20.6906 138.461 20.8743 137.673 20.8743C134.468 20.8743 132.042 18.3503 132.135 14.5616ZM132.135 13.2045C132.37 10.3841 134.71 7.98995 137.526 7.98995C140.363 7.98995 142.462 10.4512 142.79 13.2045H132.135ZM130.758 30.0634V32.5066C130.758 33.0229 130.703 33.0598 130.2 33.0955V33.2654H131.814V33.0955C131.324 33.0598 131.267 33.0229 131.267 32.5066V31.5393H131.464C131.784 31.5393 131.888 31.613 131.993 31.7824C132.177 32.0804 132.398 32.4576 132.614 32.7557C132.889 33.151 133.146 33.2836 133.608 33.3083C133.681 33.3143 133.749 33.3143 133.822 33.3143L133.847 33.1565C133.711 33.1208 133.57 33.0537 133.403 32.8711C133.258 32.7128 133.128 32.555 132.907 32.2388C132.723 31.9655 132.465 31.558 132.361 31.359C132.815 31.1637 133.141 30.8415 133.141 30.3186C133.141 29.9546 132.982 29.6807 132.735 29.5223C132.502 29.3722 132.202 29.3167 131.753 29.3167H130.23V29.4866C130.709 29.5284 130.758 29.5471 130.758 30.0634ZM131.267 29.8446C131.267 29.6807 131.293 29.6076 131.335 29.5779C131.385 29.541 131.489 29.5168 131.667 29.5168C132.133 29.5168 132.57 29.7599 132.57 30.4165C132.57 30.7447 132.472 30.9878 132.232 31.1698C132.08 31.2919 131.876 31.3403 131.563 31.3403H131.267V29.8446ZM127.589 19.339C127.589 19.339 128.88 17.3407 128.88 14.367V1.57499H127.525V9.54557H127.468C126.301 7.66881 124.266 6.63118 122.144 6.63118C118.009 6.63118 115.373 9.96623 115.373 14.3356C115.373 18.71 118.009 22.2397 122.204 22.2397C124.241 22.2397 126.567 21.2499 127.589 19.339ZM127.619 14.367C127.619 17.8681 125.583 20.8743 122.173 20.8743C118.789 20.8743 116.723 17.7691 116.723 14.3356C116.723 11.0666 118.908 7.98995 122.113 7.98995C125.615 7.98995 127.619 10.807 127.619 14.367ZM116.032 29.3167H115.123V29.4866C115.412 29.5108 115.547 29.5592 115.67 29.711C115.781 29.8567 115.793 29.8814 115.793 30.3246V31.6619C115.793 32.2212 115.775 32.5126 115.756 32.7012C115.725 32.9987 115.571 33.0779 115.215 33.0955V33.2654H116.67V33.0955C116.253 33.0713 116.111 32.9987 116.08 32.6886C116.062 32.5126 116.044 32.2212 116.044 31.6619V30.1366H116.056L118.673 33.3198H118.863V30.8712C118.863 30.307 118.875 30.0332 118.899 29.8512C118.924 29.5834 119.072 29.5042 119.415 29.4866V29.3167H117.966V29.4866C118.391 29.5108 118.538 29.5894 118.569 29.8633C118.588 30.0337 118.612 30.3131 118.612 30.8718V32.3669H118.593L116.032 29.3167ZM101.86 14.5616H113.871C113.895 10.2593 111.42 6.63503 107.225 6.63503C103.176 6.63503 100.518 10.2208 100.518 14.4038C100.518 18.6467 103.115 22.2408 107.225 22.2408C108.06 22.2408 108.85 22.0956 109.576 21.8311V20.358C108.921 20.6906 108.191 20.8743 107.403 20.8743C104.198 20.8743 101.772 18.3503 101.86 14.5616ZM101.86 13.2045C102.108 10.3841 104.442 7.98995 107.255 7.98995C110.096 7.98995 112.192 10.4512 112.521 13.2045H101.86ZM94.2867 22.7241L100.602 6.95506H99.2291L94.3168 19.2906L89.3177 6.95506H87.9382L94.2867 22.7241ZM88.344 29.3167H86.7538V29.4866C87.239 29.5284 87.2879 29.5537 87.2879 30.1003V31.6196C87.2879 32.3301 87.4596 32.7865 87.8276 33.0653C88.0983 33.2715 88.454 33.3567 88.8108 33.3567C89.216 33.3567 89.6279 33.2291 89.9102 32.9377C90.266 32.5671 90.376 32.0513 90.376 31.3337V30.8289C90.376 30.2702 90.3882 30.0084 90.4071 29.8446C90.4377 29.5955 90.5789 29.5108 90.9474 29.4866V29.3167H89.4867V29.4866C89.9164 29.5168 90.0453 29.5894 90.082 29.827C90.107 30.015 90.1253 30.2702 90.1253 30.8289V31.2913C90.1253 32.2932 89.8485 33.0229 88.9637 33.0229C88.2022 33.0229 87.8093 32.4642 87.8093 31.486V30.1003C87.8093 29.5537 87.8587 29.5168 88.344 29.4866V29.3167ZM84.8317 21.913H86.1796V1.57389H84.8317V21.913ZM83.7562 32.4703V30.0695C83.7562 29.5537 83.8113 29.5223 84.2965 29.4866V29.3167H82.6946V29.4866C83.1921 29.5223 83.2349 29.5537 83.2349 30.0695V32.5005C83.2349 33.0174 83.186 33.0598 82.6702 33.0955V33.2654H85.4509C85.5065 33.0779 85.6349 32.5005 85.6721 32.3119L85.4882 32.2756C85.3959 32.5555 85.2786 32.7496 85.1747 32.8717C85.0335 33.0295 84.8245 33.0598 84.4871 33.0598C84.2292 33.0598 84.0203 33.0471 83.8974 32.9806C83.7868 32.9195 83.7562 32.798 83.7562 32.4703ZM70.7618 14.5616H82.7647C82.7963 10.2593 80.3146 6.63118 76.121 6.63118C72.0791 6.63118 69.4117 10.2208 69.4117 14.4038C69.4117 18.6445 72.0185 22.2391 76.121 22.2391C76.9619 22.2391 77.7479 22.0956 78.4776 21.8311V20.358C77.8218 20.695 77.0842 20.8743 76.2994 20.8743C73.094 20.8743 70.674 18.3503 70.7618 14.5616ZM70.7618 13.2045C71.0013 10.3869 73.3347 7.98995 76.1571 7.98995C78.9973 7.98995 81.0878 10.4512 81.424 13.2045H70.7618ZM68.7053 30.0942V32.5126C68.7053 33.0053 68.6558 33.0537 68.0972 33.0955V33.2654H71.0564C71.1114 33.0779 71.2342 32.5066 71.2715 32.3059L71.0869 32.2817C71.0075 32.5247 70.8907 32.7315 70.7862 32.853C70.6512 33.0108 70.48 33.0598 70.0131 33.0598C69.7057 33.0598 69.4906 33.0537 69.3739 32.9806C69.2628 32.9019 69.2266 32.7738 69.2266 32.4884V31.3397H69.8102C70.3444 31.3397 70.3877 31.376 70.4678 31.8132H70.6445V30.6474H70.4678C70.3877 31.0543 70.3566 31.1033 69.8036 31.1033H69.2266V29.7236C69.2266 29.5405 69.2389 29.5284 69.4289 29.5284H69.8964C70.3383 29.5284 70.5044 29.5713 70.5895 29.6994C70.6695 29.8325 70.7312 29.9666 70.7862 30.2218L70.9641 30.191C70.9458 29.8814 70.9152 29.4685 70.9152 29.3167H68.1772V29.4866C68.6558 29.5284 68.7053 29.5471 68.7053 30.0942ZM68.0327 14.3356C68.0327 9.96623 65.4026 6.63063 61.2684 6.63063C59.1408 6.63063 57.1043 7.66882 55.9426 9.54172H55.8798V1.57389H54.5308V14.3681C54.5308 17.3402 55.8237 19.3401 55.8237 19.3401C56.8452 21.2499 59.1719 22.2391 61.2079 22.2391C65.4026 22.2391 68.0327 18.71 68.0327 14.3356ZM66.6904 14.3356C66.6904 17.7702 64.6233 20.8743 61.2379 20.8743C57.824 20.8743 55.7881 17.8681 55.7881 14.3681C55.7881 10.8065 57.7979 7.98885 61.3018 7.98885C64.5 7.98885 66.6904 11.0666 66.6904 14.3356ZM72.4943 33.0955V33.2654H73.8999V33.0955C73.4881 33.0471 73.4575 32.9866 73.6048 32.7254C73.8016 32.3669 74.0533 31.9473 74.3485 31.4981C74.7353 32.0936 75.0116 32.5495 75.1655 32.798C75.2822 32.9987 75.2395 33.0537 74.8582 33.0955V33.2654H76.4728V33.0955C76.0493 33.0537 75.9081 32.9624 75.6257 32.5368C75.3312 32.0936 74.9932 31.5646 74.6558 31.0422C75.0733 30.4159 75.2761 30.1305 75.4051 29.9546C75.6813 29.5955 75.7975 29.5344 76.2516 29.4866V29.3167H74.8459V29.4866C75.2572 29.5344 75.2884 29.5955 75.135 29.8633C74.9754 30.1608 74.7903 30.4527 74.5324 30.8476C74.2623 30.4401 74.0289 30.0876 73.826 29.7417C73.7337 29.5834 73.746 29.5284 74.115 29.4866V29.3167H72.611V29.4866C73.0468 29.5344 73.1318 29.6021 73.3902 29.9969C73.6053 30.3367 73.8938 30.7871 74.2134 31.2974C73.6782 32.1233 73.3597 32.561 73.2124 32.7496C73.034 32.9806 72.8439 33.0598 72.4943 33.0955ZM77.5911 31.3458C77.5911 32.3119 78.2598 33.3567 79.7888 33.3567C80.2312 33.3567 80.747 33.2352 80.9188 33.1928C81.0294 32.9927 81.1834 32.5429 81.269 32.2635L81.0911 32.1964C80.7837 32.8046 80.4519 33.1384 79.826 33.1384C78.8923 33.1384 78.217 32.3603 78.217 31.2242C78.217 30.3004 78.7633 29.4437 79.7888 29.4437C80.4519 29.4437 80.821 29.7055 80.9805 30.3494L81.1645 30.307C81.1278 29.9787 81.0911 29.7357 81.0416 29.3893C80.8699 29.359 80.4519 29.2254 79.9544 29.2254C78.5849 29.2254 77.5911 30.0695 77.5911 31.3458ZM92.5509 32.1541L92.3725 32.1964C92.4097 32.4884 92.4892 33.0108 92.5387 33.1384C92.5932 33.1686 92.6854 33.2115 92.8394 33.266C92.9922 33.3083 93.189 33.3567 93.4408 33.3567C94.2578 33.3567 94.8042 32.8469 94.8042 32.2085C94.8042 31.5278 94.2212 31.2424 93.742 30.9999C93.2568 30.7508 92.9617 30.5435 92.9617 30.1003C92.9617 29.772 93.1701 29.4316 93.6437 29.4316C94.1778 29.4316 94.3373 29.8512 94.4479 30.2399L94.6258 30.2036C94.5774 29.8204 94.5463 29.5834 94.5219 29.3651C94.289 29.2925 94.0311 29.2254 93.7482 29.2254C92.9556 29.2254 92.4831 29.7236 92.4831 30.307C92.4831 30.9938 93.1029 31.2974 93.4964 31.5041C93.9571 31.7472 94.2951 31.9594 94.2951 32.4092C94.2951 32.853 94.0183 33.1384 93.5575 33.1384C92.9244 33.1384 92.6488 32.5247 92.5509 32.1541ZM97.8562 29.3167H96.2293V29.4866C96.7334 29.5223 96.7818 29.5592 96.7818 30.0755V32.5066C96.7818 33.0229 96.7334 33.0598 96.2293 33.0955V33.2654H97.8562V33.0955C97.3526 33.0598 97.3032 33.0295 97.3032 32.5066V30.0755C97.3032 29.5592 97.3526 29.5223 97.8562 29.4866V29.3167ZM100.749 29.3167H99.2446V29.4926C99.6065 29.5223 99.7048 29.5713 99.8827 30.0271C100.239 30.9081 100.743 32.214 101.154 33.3264H101.345C101.805 32.0749 102.456 30.5308 102.622 30.1366C102.855 29.5894 102.935 29.5344 103.352 29.4866V29.3167H101.971V29.4866C102.468 29.5471 102.506 29.5955 102.388 29.9419C102.192 30.5495 101.725 31.7345 101.418 32.4939H101.406C100.994 31.448 100.546 30.2762 100.386 29.8446C100.287 29.5779 100.313 29.5344 100.749 29.4866V29.3167ZM104.673 33.0955V33.2654H107.632C107.687 33.0779 107.81 32.5066 107.848 32.3059L107.663 32.2817C107.584 32.5247 107.467 32.7315 107.362 32.853C107.227 33.0108 107.056 33.0598 106.589 33.0598C106.281 33.0598 106.067 33.0537 105.95 32.9806C105.839 32.9019 105.803 32.7738 105.803 32.4884V31.3397H106.386C106.921 31.3397 106.964 31.376 107.044 31.8132H107.221V30.6474H107.044C106.964 31.0543 106.933 31.1033 106.38 31.1033H105.803V29.7236C105.803 29.5405 105.814 29.5284 106.005 29.5284H106.472C106.914 29.5284 107.08 29.5713 107.166 29.6994C107.246 29.8325 107.307 29.9666 107.362 30.2218L107.541 30.191C107.522 29.8814 107.491 29.4685 107.491 29.3167H104.753V29.4866C105.232 29.5284 105.281 29.5471 105.281 30.0942V32.5126C105.281 33.0053 105.232 33.0537 104.673 33.0955ZM113.723 29.3167H112.097V29.4866C112.599 29.5223 112.649 29.5592 112.649 30.0755V32.5066C112.649 33.0229 112.599 33.0598 112.097 33.0955V33.2654H113.723V33.0955C113.22 33.0598 113.17 33.0295 113.17 32.5066V30.0755C113.17 29.5592 113.22 29.5223 113.723 29.4866V29.3167ZM120.854 29.1649C120.841 29.4987 120.81 29.8935 120.78 30.2575H120.957C121.031 29.9908 121.08 29.8204 121.154 29.7176C121.233 29.5779 121.356 29.5284 121.866 29.5284H122.247V32.5187C122.247 32.9987 122.198 33.0598 121.639 33.0955V33.2654H123.401V33.0955C122.817 33.0598 122.769 32.9987 122.769 32.5187V29.5284H123.204C123.666 29.5284 123.769 29.5713 123.867 29.7176C123.941 29.8143 123.997 29.9666 124.065 30.2575L124.242 30.2399C124.211 29.8875 124.181 29.4443 124.181 29.1649H124.052C123.953 29.2809 123.904 29.3167 123.738 29.3167H121.313C121.141 29.3167 121.062 29.3051 120.975 29.1649H120.854ZM125.619 33.0955V33.2654H128.578C128.633 33.0779 128.756 32.5066 128.792 32.3059L128.608 32.2817C128.528 32.5247 128.412 32.7315 128.307 32.853C128.173 33.0108 128.001 33.0598 127.533 33.0598C127.227 33.0598 127.012 33.0537 126.895 32.9806C126.784 32.9019 126.748 32.7738 126.748 32.4884V31.3397H127.331C127.866 31.3397 127.909 31.376 127.989 31.8132H128.167V30.6474H127.989C127.909 31.0543 127.879 31.1033 127.325 31.1033H126.748V29.7236C126.748 29.5405 126.76 29.5284 126.95 29.5284H127.417C127.86 29.5284 128.025 29.5713 128.112 29.6994C128.191 29.8325 128.252 29.9666 128.307 30.2218L128.485 30.191C128.467 29.8814 128.437 29.4685 128.437 29.3167H125.699V29.4866C126.177 29.5284 126.226 29.5471 126.226 30.0942V32.5126C126.226 33.0053 126.177 33.0537 125.619 33.0955ZM136.69 29.3167H135.064V29.4866C135.567 29.5223 135.616 29.5592 135.616 30.0755V32.5066C135.616 33.0229 135.567 33.0598 135.064 33.0955V33.2654H136.69V33.0955C136.186 33.0598 136.138 33.0295 136.138 32.5066V30.0755C136.138 29.5592 136.186 29.5223 136.69 29.4866V29.3167ZM138.165 31.3337C138.165 32.5005 139.048 33.3567 140.159 33.3567C141.284 33.3567 142.21 32.5555 142.21 31.2424C142.21 30.0271 141.272 29.2254 140.227 29.2254C138.937 29.2254 138.165 30.2399 138.165 31.3337ZM138.79 31.1637C138.79 30.0271 139.416 29.4437 140.106 29.4437C140.91 29.4437 141.585 30.125 141.585 31.4068C141.585 32.5737 140.97 33.1384 140.289 33.1384C139.423 33.1384 138.79 32.3064 138.79 31.1637ZM148.763 32.1541L148.586 32.1964C148.623 32.4884 148.702 33.0108 148.751 33.1384C148.807 33.1686 148.899 33.2115 149.052 33.266C149.205 33.3083 149.402 33.3567 149.654 33.3567C150.472 33.3567 151.017 32.8469 151.017 32.2085C151.017 31.5278 150.434 31.2424 149.955 30.9999C149.469 30.7508 149.175 30.5435 149.175 30.1003C149.175 29.772 149.384 29.4316 149.857 29.4316C150.391 29.4316 150.55 29.8512 150.662 30.2399L150.839 30.2036C150.79 29.8204 150.759 29.5834 150.735 29.3651C150.502 29.2925 150.244 29.2254 149.961 29.2254C149.169 29.2254 148.696 29.7236 148.696 30.307C148.696 30.9938 149.316 31.2974 149.709 31.5041C150.17 31.7472 150.508 31.9594 150.508 32.4092C150.508 32.853 150.231 33.1384 149.771 33.1384C149.139 33.1384 148.862 32.5247 148.763 32.1541Z" fill="#1E1E1E"/>
</g>
<mask id="mask1_2007_154" style="mask-type:luminance" maskUnits="userSpaceOnUse" x="-128" y="-19" width="891" height="2674">
<path d="M-127.221 2654.16H762.087V-18.2849H-127.221V2654.16Z" fill="white"/>
</mask>
<g mask="url(#mask1_2007_154)">
<path d="M31.934 3.81698C33.2691 2.48131 34.0911 1.15334 33.9494 0.980128C33.7738 0.839357 32.4304 1.65319 31.0814 2.97346C30.9135 2.70622 30.7173 2.44832 30.48 2.21407C29.7619 1.50252 28.8626 1.09725 27.9594 0.995524C28.4235 1.15664 28.8642 1.42334 29.2433 1.79891C29.6552 2.20582 29.9331 2.68862 30.0887 3.19232C30.1576 3.42052 30.1982 3.64817 30.216 3.87637C30.2365 4.09028 30.2227 4.30088 30.1982 4.51039L30.161 4.67096C28.4463 5.78007 26.5643 6.64889 24.58 7.29116C23.7513 4.05453 20.8121 1.64989 17.2838 1.64989C13.756 1.64989 10.8185 4.05289 9.98814 7.28676C8.00832 6.64504 6.13077 5.77787 4.41996 4.67041L4.38328 4.51039C4.35771 4.30088 4.34493 4.09028 4.36382 3.87637C4.38328 3.64817 4.42218 3.42052 4.49222 3.19232C4.6484 2.68862 4.92575 2.20582 5.3365 1.79891C5.71724 1.42334 6.158 1.15664 6.62211 0.995524C5.71835 1.09725 4.81904 1.50252 4.10037 2.21407C3.86359 2.44832 3.66794 2.70622 3.49897 2.97346C2.15056 1.65319 0.80715 0.839357 0.632068 0.980128C0.489223 1.15334 1.31183 2.48131 2.64635 3.81698C2.37622 3.98415 2.11721 4.17606 1.87932 4.41196C1.15954 5.12296 0.749901 6.01102 0.64763 6.90679C0.811596 6.44763 1.08006 6.00992 1.45912 5.63545C1.87099 5.22854 2.35844 4.95415 2.86923 4.79963C3.09823 4.73034 3.33056 4.69185 3.559 4.6726C3.77521 4.65446 3.98865 4.66656 4.19986 4.69185L4.36827 4.72814C5.4888 6.42289 6.36588 8.2837 7.01452 10.2451C3.73964 11.0623 1.30572 13.9717 1.30572 17.4651C1.30572 20.9569 3.73742 23.8647 7.01007 24.6835C6.36087 26.6422 5.48435 28.5002 4.36493 30.1933L4.19986 30.2307C3.98865 30.256 3.77577 30.2681 3.559 30.2489C3.32889 30.2307 3.09823 30.1917 2.86757 30.1224C2.35844 29.9684 1.87154 29.6929 1.45912 29.2871C1.08061 28.9121 0.809929 28.4749 0.64763 28.0158C0.751012 28.9088 1.15954 29.799 1.87932 30.5095C2.1161 30.7443 2.37622 30.9373 2.64635 31.1056C1.31294 32.4385 0.490334 33.7681 0.632068 33.9419C0.80715 34.0821 2.14945 33.2683 3.49897 31.9491C3.66794 32.2158 3.86248 32.472 4.10092 32.7079C4.81904 33.42 5.71779 33.8242 6.62211 33.9259C6.158 33.7632 5.71613 33.4981 5.3365 33.1237C4.92687 32.7156 4.6484 32.2328 4.49222 31.7286C4.42218 31.502 4.38328 31.2727 4.36493 31.0462C4.34548 30.8317 4.35771 30.6211 4.38328 30.4111L4.42052 30.245C6.13243 29.137 8.01221 28.2704 9.99369 27.6287C10.8208 30.8664 13.7605 33.2732 17.2916 33.2732C20.8205 33.2732 23.7602 30.8664 24.5878 27.6292C26.5693 28.2704 28.4485 29.1375 30.161 30.245L30.1982 30.4111C30.2227 30.6211 30.2349 30.8317 30.216 31.0462C30.1982 31.2727 30.1576 31.502 30.0887 31.7286C29.9331 32.2328 29.6535 32.7156 29.2433 33.1237C28.8642 33.4981 28.4235 33.7632 27.9594 33.9259C28.8626 33.8242 29.7619 33.42 30.48 32.7079C30.719 32.472 30.9135 32.2158 31.0814 31.9491C32.432 33.2683 33.7738 34.0821 33.9494 33.9419C34.0911 33.7681 33.268 32.4385 31.934 31.1056C32.2036 30.9373 32.4643 30.7443 32.7022 30.5095C33.4219 29.799 33.8305 28.9088 33.9338 28.0158C33.7704 28.4749 33.5003 28.9121 33.1212 29.2871C32.7099 29.6929 32.2225 29.9684 31.7134 30.1224C31.4821 30.1917 31.2526 30.2307 31.0214 30.2489C30.8057 30.2681 30.5928 30.256 30.3816 30.2307L30.2165 30.1933C29.0949 28.498 28.2173 26.6378 27.5686 24.6763C30.8385 23.8559 33.2691 20.9486 33.2691 17.458C33.2691 13.9673 30.8385 11.0606 27.5686 10.2402C28.2173 8.2804 29.0932 6.42124 30.2132 4.72814L30.3816 4.69185C30.5928 4.66656 30.8057 4.65446 31.0214 4.6726C31.2509 4.69185 31.4821 4.73034 31.7122 4.79963C32.2225 4.95415 32.7099 5.22854 33.1212 5.63545C33.5003 6.00992 33.7688 6.44763 33.9338 6.90679C33.8305 6.01102 33.4219 5.12296 32.7022 4.41196C32.4632 4.17606 32.2036 3.98415 31.934 3.81698ZM24.8418 25.8025C24.8418 25.4868 24.8218 25.1778 24.7845 24.8726C25.0886 24.9084 25.4015 24.9293 25.7172 24.9293C25.845 24.9293 25.9634 24.8979 26.0896 24.8919C26.3014 25.5583 26.5298 26.2193 26.7983 26.866C26.1452 26.6004 25.4776 26.3749 24.8046 26.1654C24.8107 26.0422 24.8418 25.9268 24.8418 25.8025ZM11.0731 27.3147C13.0574 26.7752 15.1322 26.4524 17.2893 26.4524C19.4481 26.4524 21.5241 26.7758 23.5084 27.3152C22.8181 30.0855 20.3019 32.1548 17.2916 32.1548C14.2796 32.1548 11.764 30.0855 11.0731 27.3147ZM7.78321 26.866C8.05056 26.2215 8.27789 25.5622 8.4891 24.8985C8.6136 24.9045 8.73143 24.9353 8.8576 24.9353C9.17442 24.9353 9.48901 24.9172 9.79638 24.8787C9.75858 25.1811 9.73969 25.4901 9.73969 25.8025C9.73969 25.9268 9.77025 26.0422 9.77637 26.1654C9.10383 26.3749 8.43574 26.6004 7.78321 26.866ZM7.33078 11.3125C7.87492 13.2745 8.20174 15.3261 8.20174 17.4591C8.20174 19.5965 7.87436 21.6514 7.328 23.6161C4.52668 22.9332 2.43458 20.4439 2.43458 17.4651C2.43458 14.4853 4.52779 11.9954 7.33078 11.3125ZM9.7319 9.12117C9.7319 9.43571 9.75247 9.74639 9.79027 10.051C9.48457 10.0136 9.17275 9.99439 8.8576 9.99439C8.7331 9.99439 8.61694 10.0252 8.49354 10.0312C8.28122 9.36312 8.05223 8.69941 7.78321 8.05165C8.43352 8.31614 9.09939 8.5405 9.7697 8.74945C9.76359 8.87538 9.7319 8.99415 9.7319 9.12117ZM23.4984 7.60459C21.5169 8.14238 19.4443 8.46571 17.2893 8.46571C15.13 8.46571 13.0529 8.14183 11.067 7.60129C11.7601 4.83317 14.2746 2.76725 17.2838 2.76725C20.2941 2.76725 22.8069 4.83482 23.4984 7.60459ZM23.4789 11.3301L24.9174 11.1541C25.1808 11.1211 25.451 11.1035 25.7172 11.1035C25.7411 11.1035 25.7628 11.1101 25.7861 11.1107C25.2359 13.1678 24.9279 15.2942 24.9279 17.4591C24.9279 19.6229 25.2353 21.7487 25.7861 23.8059C25.7628 23.8064 25.7411 23.8124 25.7172 23.8124C25.4521 23.8124 25.1853 23.7949 24.9218 23.7619L23.485 23.5875L23.6635 25.0101C23.6946 25.2707 23.7129 25.5385 23.7129 25.8025C23.7129 25.8239 23.7068 25.8437 23.7068 25.8646C21.6269 25.3197 19.4776 25.0145 17.2893 25.0145C15.1033 25.0145 12.9545 25.3197 10.8752 25.8641C10.8752 25.8432 10.8691 25.8239 10.8691 25.8025C10.8691 25.5402 10.8841 25.2751 10.9175 25.0145L11.0948 23.5936L9.65798 23.7701C9.39286 23.8009 9.1244 23.8185 8.8576 23.8185C8.83593 23.8185 8.81536 23.8125 8.79369 23.8119C9.34506 21.7531 9.65409 19.6256 9.65409 17.4591C9.65409 15.2964 9.34617 13.1727 8.79647 11.1173C8.81759 11.1173 8.83648 11.1112 8.8576 11.1112C9.12106 11.1112 9.38952 11.1288 9.65131 11.1601L11.0892 11.3345L10.9113 9.91301C10.878 9.65071 10.8608 9.38512 10.8608 9.12117C10.8608 9.09753 10.8674 9.07553 10.868 9.05134C12.9495 9.59737 15.1005 9.90256 17.2893 9.90256C19.4743 9.90256 21.6197 9.59847 23.6968 9.05519C23.6974 9.07773 23.7035 9.09863 23.7035 9.12117C23.7035 9.38237 23.6885 9.64796 23.6579 9.90696L23.4789 11.3301ZM26.7983 8.05165C26.5298 8.69721 26.3019 9.35873 26.0902 10.0246C25.964 10.018 25.845 9.98724 25.7172 9.98724C25.3982 9.98724 25.0852 10.007 24.7784 10.0444C24.814 9.74144 24.8357 9.43406 24.8357 9.12117C24.8357 8.99525 24.804 8.87867 24.7979 8.7544C25.4732 8.54434 26.143 8.31834 26.7983 8.05165ZM27.2518 11.3075C30.0498 11.9932 32.1391 14.4809 32.1391 17.458C32.1391 20.4356 30.0498 22.9233 27.2518 23.609C26.7071 21.6459 26.3803 19.5932 26.3803 17.4591C26.3803 15.3239 26.7071 13.2706 27.2518 11.3075ZM23.3956 17.4613C22.1033 17.4613 20.2735 14.6607 18.9551 16.1306C18.9073 16.0728 18.8656 16.0101 18.8117 15.9573C18.7561 15.9029 18.6945 15.8622 18.6344 15.8149C20.1223 14.5106 17.2916 12.7009 17.2916 11.4213C17.2916 12.7009 14.4586 14.5089 15.9437 15.8133C15.8859 15.8622 15.8242 15.9029 15.7686 15.9573C15.7147 16.0118 15.6725 16.0728 15.6252 16.1306C14.3046 14.6607 12.4771 17.4613 11.1859 17.4613C12.4771 17.4613 14.3046 20.2624 15.6252 18.7926C15.6725 18.8519 15.7147 18.913 15.7686 18.9658C15.8242 19.0202 15.8859 19.0625 15.9437 19.1082C14.4586 20.4142 17.2916 22.2238 17.2916 23.5012C17.2916 22.2238 20.1223 20.4125 18.6344 19.1082C18.6928 19.0609 18.7561 19.0202 18.8117 18.9669C18.8673 18.913 18.9057 18.8503 18.9551 18.7909C20.2746 20.2624 22.1033 17.4613 23.3956 17.4613ZM18.4866 18.6435C17.8263 19.2962 16.7547 19.2962 16.0943 18.6435C15.4357 17.9925 15.434 16.9323 16.0943 16.2785C16.7519 15.6258 17.8263 15.6274 18.4849 16.2785C19.1447 16.9323 19.1447 17.9925 18.4866 18.6435Z" fill="#1E1E1E"/>
</g>
</g>
<defs>
<clipPath id="clip0_2007_154">
<rect width="163.075" height="33.1745" fill="white" transform="translate(0.616211 0.966797)"/>
</clipPath>
</defs>
</svg>
