<svg width="131" height="48" viewBox="0 0 131 48" fill="none" xmlns="http://www.w3.org/2000/svg">
<path d="M29.6126 4.36624C30.8371 4.36624 31.8308 3.3708 31.8308 2.18311C31.8308 0.99532 30.8371 0 29.6126 0C28.3506 0 27.3942 0.9566 27.3942 2.14424C27.3942 3.3708 28.3506 4.36624 29.6126 4.36624ZM39.2691 4.36624C40.4937 4.36624 41.4876 3.3708 41.4876 2.18311C41.4876 0.99532 40.4937 0 39.2691 0C38.0459 0 37.0508 0.9566 37.0508 2.14424C37.0508 3.3708 38.0459 4.36624 39.2691 4.36624ZM41.6508 23.4438C41.6508 28.6919 38.6295 31.8329 34.4222 31.8329C30.0243 31.8329 27.2323 28.4622 27.2323 23.4438V7.54606H23.9041V23.6737C23.9041 30.8363 28.1873 34.974 34.4222 34.974C40.8851 34.974 44.9776 30.6453 44.9776 23.6737V7.54606H41.6508V23.4438ZM13.3099 20.455V20.379C16.2553 19.3448 17.6319 16.8171 17.6319 14.1728C17.6319 9.53804 14.1516 7.54606 8.87333 7.54606H0V34.7443H9.90573C16.0645 34.7443 18.6134 31.6793 18.6134 27.3505C18.6134 23.4052 16.4847 21.1071 13.3099 20.455ZM3.32813 10.5722L8.52913 10.5335C12.5069 10.5335 14.2277 12.2196 14.2277 14.8249C14.2277 18.1183 11.7039 19.2686 8.91199 19.2686H3.32813V10.5722ZM9.60031 31.7182H3.32813V22.18H9.10269C13.3099 22.18 15.1317 24.0183 15.1317 27.0834C15.1317 30.2244 13.1579 31.7182 9.60031 31.7182ZM63.1458 24.0571C67.429 23.1753 69.9156 20.5326 69.9156 15.9739C69.9156 11.1467 67.1997 7.54606 60.9275 7.54606H51.2884V34.7443H54.6167V24.3631H59.4734L66.6634 34.7443H70.6412L63.1458 24.0571ZM54.6167 21.3369V10.5722H60.4685C64.2156 10.5722 66.4726 12.4107 66.4726 15.8964C66.4726 19.0389 64.5224 21.3369 60.0097 21.3369H54.6167ZM87.3941 7.27747C79.4772 7.27747 73.74 13.0626 73.74 21.1444C73.74 29.2276 79.4772 34.974 87.3941 34.974C95.0055 34.974 100.934 29.4201 100.934 21.1444C100.934 12.8328 95.0055 7.27747 87.3941 7.27747ZM87.3941 31.8329C81.5035 31.8329 77.2201 27.2743 77.2201 21.1444C77.2201 14.9772 81.5035 10.4186 87.3941 10.4186C93.0166 10.4186 97.4533 14.8249 97.4533 21.1444C97.4533 27.428 93.0166 31.8329 87.3941 31.8329ZM113.072 46.7247H113.062L111.026 41.1294H110.125L112.689 47.9326H113.436L116 41.1294H115.11L113.072 46.7247ZM119.938 44.09L119.919 44.0995C119.584 43.5343 118.981 43.2083 118.293 43.2083C116.972 43.2083 116.025 44.2531 116.025 45.6333C116.025 47.0508 117.011 47.99 118.293 47.99C119.048 47.99 119.621 47.6454 119.956 47.0895H119.967V47.9326H120.713V43.2657H119.938V44.09ZM118.408 47.2806C117.45 47.2806 116.809 46.5725 116.809 45.6333C116.809 44.5978 117.527 43.9177 118.408 43.9177C119.325 43.9177 119.967 44.6753 119.967 45.6333C119.967 46.6193 119.268 47.2806 118.408 47.2806ZM67.5571 44.9238H70.2837V44.1662H67.5571V41.8869H70.8866V41.1294H66.7249V47.9326H71.0867V47.175H67.5571V44.9238ZM105.796 44.09L105.778 44.0995C105.443 43.5343 104.84 43.2083 104.152 43.2083C102.831 43.2083 101.884 44.2531 101.884 45.6333C101.884 47.0508 102.87 47.99 104.152 47.99C104.907 47.99 105.48 47.6454 105.815 47.0895H105.826V47.9326H106.572V43.2657H105.796V44.09ZM104.266 47.2806C103.309 47.2806 102.668 46.5725 102.668 45.6333C102.668 44.5978 103.386 43.9177 104.266 43.9177C105.184 43.9177 105.826 44.6753 105.826 45.6333C105.826 46.6193 105.127 47.2806 104.266 47.2806ZM129.147 45.1923C128.64 45.0106 128.266 44.8276 128.266 44.4642C128.266 44.1088 128.62 43.8991 128.984 43.8991C129.385 43.8991 129.816 44.0233 130.218 44.3973L130.619 43.7841C130.103 43.3619 129.578 43.2083 129.013 43.2083C128.133 43.2083 127.482 43.7454 127.482 44.4642C127.482 45.3166 128.123 45.6239 128.878 45.891C129.557 46.1409 129.988 46.2558 129.988 46.6673C129.988 47.0228 129.663 47.3006 129.099 47.3006C128.448 47.3006 128.037 47.0895 127.673 46.7354L127.28 47.3287C127.73 47.7215 128.324 47.99 129.099 47.99C130.218 47.99 130.773 47.3861 130.773 46.658C130.782 45.7481 130.132 45.5758 129.147 45.1923ZM125.685 47.2619C125.245 47.2619 125.121 46.9933 125.121 46.4282V43.9364H126.66V43.2657H125.121V41.589L124.346 41.6758V46.5431C124.346 47.4823 124.729 47.99 125.55 47.99C126.105 47.99 126.421 47.8565 126.68 47.7027L126.479 47.0228C126.249 47.147 125.963 47.2619 125.685 47.2619ZM122.164 47.9326H122.939V40.8795H122.164V47.9326ZM99.1601 43.2083C98.4426 43.2083 97.8303 43.5436 97.4661 44.1088H97.4568V43.2657H96.6818V47.9326H97.4568V45.6039C97.4568 44.5497 98.0317 43.9177 98.9107 43.9177C99.5911 43.9177 100.059 44.2918 100.059 45.3833V47.9326H100.834V45.1629C100.834 43.8309 100.165 43.2083 99.1601 43.2083ZM76.2879 43.2657H75.35L73.0637 45.8243L73.0544 45.815V41.0711H72.2793V47.9326H73.0544V46.7729L74.0108 45.7388L75.418 47.9326H76.3078L74.547 45.1923L76.2879 43.2657ZM94.789 41.3016C94.4741 41.3016 94.2247 41.5516 94.2247 41.8575C94.2247 42.1648 94.4741 42.4132 94.789 42.4132C95.1051 42.4132 95.3545 42.1648 95.3545 41.8575C95.3545 41.5516 95.1051 41.3016 94.789 41.3016ZM91.7582 44.1194H91.7395V43.2657H90.9644V47.9326H91.7395V45.6813C91.7395 44.7421 92.2651 44.062 93.1549 44.062C93.2322 44.062 93.3469 44.0714 93.4617 44.0807V43.2176C93.3936 43.2083 93.3363 43.2083 93.2695 43.2083C92.6293 43.2083 92.093 43.5529 91.7582 44.1194ZM87.6858 43.2083C86.3557 43.2083 85.39 44.1957 85.39 45.6039C85.39 47.0321 86.3664 47.99 87.7431 47.99C88.6809 47.99 89.2651 47.6359 89.6667 47.1176L89.121 46.658C88.8343 47.0121 88.394 47.2806 87.7724 47.2806C86.892 47.2806 86.2798 46.706 86.1743 45.8336H89.8093C89.8093 45.7761 89.8294 45.6426 89.8294 45.5184C89.8294 44.1862 88.9583 43.2083 87.6858 43.2083ZM86.193 45.2016C86.3372 44.4067 86.9307 43.9177 87.6763 43.9177C88.4421 43.9177 88.9396 44.4348 89.0543 45.2016H86.193ZM94.3967 47.9326H95.1717V43.2657H94.3967V47.9326ZM80.6004 44.09L80.5817 44.0995C80.2469 43.5343 79.644 43.2083 78.9557 43.2083C77.6351 43.2083 76.688 44.2531 76.688 45.6333C76.688 47.0508 77.6738 47.99 78.9557 47.99C79.7107 47.99 80.2842 47.6454 80.619 47.0895H80.6298V47.9326H81.3755V43.2657H80.6004V44.09ZM79.0705 47.2806C78.1127 47.2806 77.4723 46.5725 77.4723 45.6333C77.4723 44.5978 78.1899 43.9177 79.0705 43.9177C79.9881 43.9177 80.6298 44.6753 80.6298 45.6333C80.6298 46.6193 79.9307 47.2806 79.0705 47.2806ZM83.9 47.2619C83.4598 47.2619 83.3358 46.9933 83.3358 46.4282V43.9364H84.875V43.2657H83.3358V41.589L82.5607 41.6758V46.5431C82.5607 47.4823 82.9436 47.99 83.7652 47.99C84.3202 47.99 84.6363 47.8565 84.8951 47.7027L84.6937 47.0228C84.4643 47.147 84.1775 47.2619 83.9 47.2619ZM125.946 27.354C123.908 30.5555 120.929 31.8851 117.785 31.8851C112.64 31.8851 108.772 28.1027 108.123 22.7965H128.992V22.7856H130.698C130.746 22.2677 130.773 21.7388 130.773 21.1966C130.773 12.8849 125.086 7.32961 117.785 7.32961C110.191 7.32961 104.687 13.1148 104.687 21.1966C104.687 29.2797 110.191 35.0262 117.785 35.0262C121.986 35.0262 125.631 33.1672 128.321 29.3607L125.946 27.354ZM117.785 10.4707C122.762 10.4707 126.768 14.2247 127.357 19.7703H108.104C108.686 14.34 112.581 10.4707 117.785 10.4707ZM125.946 27.354C125.949 27.3493 125.952 27.3452 125.955 27.3406L125.946 27.354Z" fill="#3E3C3F"/>
</svg>
