<svg width="132" height="49" viewBox="0 0 132 49" fill="none" xmlns="http://www.w3.org/2000/svg">
<path d="M30.0253 5.00589C31.2499 5.00589 32.2436 4.01044 32.2436 2.82276C32.2436 1.63497 31.2499 0.639648 30.0253 0.639648C28.7633 0.639648 27.807 1.59625 27.807 2.78388C27.807 4.01044 28.7633 5.00589 30.0253 5.00589ZM39.6819 5.00589C40.9064 5.00589 41.9003 4.01044 41.9003 2.82276C41.9003 1.63497 40.9064 0.639648 39.6819 0.639648C38.4587 0.639648 37.4636 1.59625 37.4636 2.78388C37.4636 4.01044 38.4587 5.00589 39.6819 5.00589ZM42.0635 24.0835C42.0635 29.3315 39.0422 32.4726 34.8349 32.4726C30.437 32.4726 27.645 29.1018 27.645 24.0835V8.18571H24.3169V24.3133C24.3169 31.4759 28.6001 35.6137 34.8349 35.6137C41.2978 35.6137 45.3903 31.2849 45.3903 24.3133V8.18571H42.0635V24.0835ZM13.7227 21.0947V21.0186C16.6681 19.9845 18.0447 17.4567 18.0447 14.8125C18.0447 10.1777 14.5644 8.18571 9.28608 8.18571H0.41275V35.384H10.3185C16.4773 35.384 19.0261 32.319 19.0261 27.9902C19.0261 24.0448 16.8974 21.7467 13.7227 21.0947ZM3.74088 11.2119L8.94188 11.1731C12.9196 11.1731 14.6405 12.8592 14.6405 15.4646C14.6405 18.7579 12.1166 19.9083 9.32474 19.9083H3.74088V11.2119ZM10.0131 32.3578H3.74088V22.8196H9.51544C13.7227 22.8196 15.5445 24.658 15.5445 27.723C15.5445 30.8641 13.5707 32.3578 10.0131 32.3578ZM63.5585 24.6967C67.8417 23.8149 70.3283 21.1723 70.3283 16.6135C70.3283 11.7864 67.6124 8.18571 61.3403 8.18571H51.7012V35.384H55.0294V25.0028H59.8862L67.0761 35.384H71.0539L63.5585 24.6967ZM55.0294 21.9766V11.2119H60.8813C64.6284 11.2119 66.8853 13.0503 66.8853 16.5361C66.8853 19.6785 64.9352 21.9766 60.4225 21.9766H55.0294ZM87.8069 7.91712C79.89 7.91712 74.1527 13.7023 74.1527 21.7841C74.1527 29.8673 79.89 35.6137 87.8069 35.6137C95.4182 35.6137 101.346 30.0598 101.346 21.7841C101.346 13.4724 95.4182 7.91712 87.8069 7.91712ZM87.8069 32.4726C81.9162 32.4726 77.6329 27.914 77.6329 21.7841C77.6329 15.6168 81.9162 11.0582 87.8069 11.0582C93.4294 11.0582 97.866 15.4646 97.866 21.7841C97.866 28.0676 93.4294 32.4726 87.8069 32.4726ZM113.485 47.3644H113.475L111.438 41.769H110.538L113.102 48.5722H113.849L116.413 41.769H115.523L113.485 47.3644ZM120.35 44.7297L120.332 44.7391C119.997 44.1739 119.394 43.8479 118.706 43.8479C117.385 43.8479 116.438 44.8928 116.438 46.2729C116.438 47.6904 117.424 48.6297 118.706 48.6297C119.461 48.6297 120.034 48.285 120.369 47.7292H120.38V48.5722H121.125V43.9054H120.35V44.7297ZM118.82 47.9203C117.863 47.9203 117.222 47.2121 117.222 46.2729C117.222 45.2374 117.94 44.5573 118.82 44.5573C119.738 44.5573 120.38 45.3149 120.38 46.2729C120.38 47.2589 119.681 47.9203 118.82 47.9203ZM67.9699 45.5634H70.6964V44.8059H67.9699V42.5266H71.2994V41.769H67.1376V48.5722H71.4995V47.8147H67.9699V45.5634ZM106.209 44.7297L106.191 44.7391C105.856 44.1739 105.253 43.8479 104.564 43.8479C103.244 43.8479 102.297 44.8928 102.297 46.2729C102.297 47.6904 103.283 48.6297 104.564 48.6297C105.32 48.6297 105.893 48.285 106.228 47.7292H106.239V48.5722H106.984V43.9054H106.209V44.7297ZM104.679 47.9203C103.722 47.9203 103.081 47.2121 103.081 46.2729C103.081 45.2374 103.799 44.5573 104.679 44.5573C105.597 44.5573 106.239 45.3149 106.239 46.2729C106.239 47.2589 105.54 47.9203 104.679 47.9203ZM129.559 45.832C129.052 45.6503 128.679 45.4672 128.679 45.1039C128.679 44.7484 129.032 44.5387 129.397 44.5387C129.798 44.5387 130.229 44.6629 130.63 45.037L131.032 44.4238C130.516 44.0015 129.99 43.8479 129.426 43.8479C128.546 43.8479 127.895 44.3851 127.895 45.1039C127.895 45.9562 128.536 46.2635 129.291 46.5307C129.97 46.7805 130.401 46.8954 130.401 47.3069C130.401 47.6624 130.076 47.9403 129.511 47.9403C128.86 47.9403 128.449 47.7292 128.085 47.3751L127.693 47.9683C128.143 48.3611 128.736 48.6297 129.511 48.6297C130.63 48.6297 131.185 48.0258 131.185 47.2977C131.195 46.3877 130.545 46.2155 129.559 45.832ZM126.098 47.9016C125.658 47.9016 125.534 47.633 125.534 47.0678V44.576H127.073V43.9054H125.534V42.2286L124.759 42.3155V47.1827C124.759 48.122 125.141 48.6297 125.963 48.6297C126.518 48.6297 126.834 48.4961 127.093 48.3424L126.891 47.6624C126.662 47.7866 126.375 47.9016 126.098 47.9016ZM122.577 48.5722H123.352V41.5191H122.577V48.5722ZM99.5729 43.8479C98.8554 43.8479 98.243 44.1833 97.8788 44.7484H97.8696V43.9054H97.0945V48.5722H97.8696V46.2435C97.8696 45.1894 98.4445 44.5573 99.3235 44.5573C100.004 44.5573 100.472 44.9315 100.472 46.023V48.5722H101.247V45.8026C101.247 44.4706 100.577 43.8479 99.5729 43.8479ZM76.7006 43.9054H75.7627L73.4764 46.4639L73.4671 46.4546V41.7108H72.6921V48.5722H73.4671V47.4126L74.4236 46.3784L75.8308 48.5722H76.7206L74.9597 45.832L76.7006 43.9054ZM95.2017 41.9413C94.8869 41.9413 94.6375 42.1913 94.6375 42.4972C94.6375 42.8044 94.8869 43.0529 95.2017 43.0529C95.5178 43.0529 95.7672 42.8044 95.7672 42.4972C95.7672 42.1913 95.5178 41.9413 95.2017 41.9413ZM92.171 44.7591H92.1522V43.9054H91.3772V48.5722H92.1522V46.321C92.1522 45.3817 92.6779 44.7016 93.5676 44.7016C93.645 44.7016 93.7597 44.7111 93.8744 44.7204V43.8572C93.8064 43.8479 93.749 43.8479 93.6823 43.8479C93.042 43.8479 92.5057 44.1926 92.171 44.7591ZM88.0985 43.8479C86.7685 43.8479 85.8027 44.8353 85.8027 46.2435C85.8027 47.6717 86.7791 48.6297 88.1559 48.6297C89.0936 48.6297 89.6778 48.2756 90.0794 47.7572L89.5337 47.2977C89.247 47.6517 88.8068 47.9203 88.1851 47.9203C87.3048 47.9203 86.6926 47.3457 86.5871 46.4732H90.222C90.222 46.4158 90.2421 46.2822 90.2421 46.158C90.2421 44.8258 89.371 43.8479 88.0985 43.8479ZM86.6058 45.8413C86.7499 45.0464 87.3434 44.5573 88.0891 44.5573C88.8548 44.5573 89.3523 45.0745 89.467 45.8413H86.6058ZM94.8094 48.5722H95.5844V43.9054H94.8094V48.5722ZM81.0132 44.7297L80.9945 44.7391C80.6597 44.1739 80.0568 43.8479 79.3685 43.8479C78.0479 43.8479 77.1007 44.8928 77.1007 46.2729C77.1007 47.6904 78.0865 48.6297 79.3685 48.6297C80.1234 48.6297 80.697 48.285 81.0318 47.7292H81.0426V48.5722H81.7882V43.9054H81.0132V44.7297ZM79.4832 47.9203C78.5254 47.9203 77.885 47.2121 77.885 46.2729C77.885 45.2374 78.6027 44.5573 79.4832 44.5573C80.4008 44.5573 81.0426 45.3149 81.0426 46.2729C81.0426 47.2589 80.3435 47.9203 79.4832 47.9203ZM84.3128 47.9016C83.8725 47.9016 83.7485 47.633 83.7485 47.0678V44.576H85.2878V43.9054H83.7485V42.2286L82.9735 42.3155V47.1827C82.9735 48.122 83.3563 48.6297 84.1779 48.6297C84.7329 48.6297 85.049 48.4961 85.3079 48.3424L85.1064 47.6624C84.8771 47.7866 84.5902 47.9016 84.3128 47.9016ZM126.359 27.9936C124.321 31.1951 121.342 32.5247 118.198 32.5247C113.052 32.5247 109.185 28.7424 108.536 23.4361H129.405V23.4253H131.111C131.158 22.9073 131.185 22.3784 131.185 21.8362C131.185 13.5246 125.499 7.96926 118.198 7.96926C110.603 7.96926 105.1 13.7544 105.1 21.8362C105.1 29.9194 110.603 35.6658 118.198 35.6658C122.399 35.6658 126.044 33.8068 128.733 30.0004L126.359 27.9936ZM118.198 11.1103C123.175 11.1103 127.18 14.8643 127.77 20.4099H108.517C109.099 14.9796 112.994 11.1103 118.198 11.1103ZM126.359 27.9936C126.362 27.989 126.365 27.9848 126.368 27.9802L126.359 27.9936Z" fill="#5F6A73"/>
</svg>
